<svg width="274" height="80" viewBox="0 0 274 80" fill="none" xmlns="http://www.w3.org/2000/svg">
<g clip-path="url(#clip0)">
<path d="M43.0932 24.7986C42.5318 21.296 39.584 15.1313 30.3197 15.1313C23.8627 15.1313 19.792 19.1944 19.792 23.3975C19.792 27.0403 22.0379 29.8424 27.3719 30.8231L37.6189 32.7846C52.2172 35.4466 59.7971 44.9737 59.7971 55.9019C59.7971 67.951 49.6906 80.1401 31.4426 80.1401C10.2469 80 1.12295 66.2697 0 55.3415L15.7213 51.5587C16.4232 58.5639 21.1957 64.7285 31.7234 64.7285C38.4611 64.7285 42.5318 61.5061 42.5318 56.7426C42.5318 52.8196 39.4436 50.0175 34.25 49.0368L23.7223 47.0753C10.668 44.6935 2.80738 36.007 2.80738 24.6585C2.80738 10.2277 15.5809 0 30.3197 0C49.5502 0 56.709 11.4886 58.3934 20.4553L43.0932 24.7986Z" fill="white"/>
<path d="M71.3069 57.1631C77.3428 57.1631 82.5364 62.2069 82.5364 68.2314C82.5364 74.1158 77.4831 79.4398 71.3069 79.4398C65.271 79.4398 60.2178 74.2559 60.2178 68.2314C60.2178 62.0668 65.1307 57.1631 71.3069 57.1631Z" fill="white"/>
<path d="M120.015 0C141.632 0 159.88 15.6918 159.88 40.0701C159.88 64.3082 141.491 80 120.015 80C98.3981 80 80.0098 64.3082 80.0098 40.0701C80.0098 15.6918 98.3981 0 120.015 0ZM120.015 63.0473C130.683 63.0473 142.193 55.9019 142.193 39.9299C142.193 23.958 130.683 16.6725 120.015 16.6725C109.347 16.6725 97.8366 23.958 97.8366 39.9299C97.8366 55.9019 109.347 63.0473 120.015 63.0473Z" fill="white"/>
<path d="M172.935 57.1631C178.971 57.1631 184.164 62.2069 184.164 68.2314C184.164 74.1158 179.111 79.4398 172.935 79.4398C166.899 79.4398 161.846 74.2559 161.846 68.2314C161.846 62.0668 166.899 57.1631 172.935 57.1631Z" fill="white"/>
<path d="M260.665 13.5899V0.700195H257.437H251.26H240.873H234.697H224.029H217.993H207.325H201.289H189.498V78.3184H207.325V18.6336H217.993V78.3184H240.873V18.6336H251.26V78.3184H274V13.5899H260.665Z" fill="#FF4B4B"/>
</g>
<defs>
<clipPath id="clip0">
<rect width="274" height="80" fill="white"/>
</clipPath>
</defs>
</svg>
