<svg width="60" height="18" viewBox="0 0 60 18" fill="none" xmlns="http://www.w3.org/2000/svg">
<g clip-path="url(#clip0)">
<path d="M9.43648 5.57968C9.31352 4.79159 8.66803 3.40455 6.63934 3.40455C5.22541 3.40455 4.33402 4.31874 4.33402 5.26445C4.33402 6.08406 4.82582 6.71454 5.99385 6.9352L8.2377 7.37653C11.4344 7.97548 13.0943 10.1191 13.0943 12.5779C13.0943 15.289 10.8811 18.0315 6.88525 18.0315C2.24385 18 0.245902 14.9107 0 12.4518L3.44262 11.6007C3.59631 13.1769 4.64139 14.5639 6.94672 14.5639C8.42213 14.5639 9.31352 13.8389 9.31352 12.7671C9.31352 11.8844 8.63729 11.2539 7.5 11.0333L5.19467 10.5919C2.33607 10.056 0.614754 8.10158 0.614754 5.54816C0.614754 2.30123 3.41189 0 6.63934 0C10.8504 0 12.418 2.58494 12.7869 4.60245L9.43648 5.57968Z" fill="white"/>
<path d="M15.6148 12.8613C16.9365 12.8613 18.0738 13.9962 18.0738 15.3517C18.0738 16.6757 16.9673 17.8736 15.6148 17.8736C14.2931 17.8736 13.1865 16.7072 13.1865 15.3517C13.1865 13.9647 14.2623 12.8613 15.6148 12.8613Z" fill="white"/>
<path d="M26.2808 0C31.0144 0 35.0103 3.53065 35.0103 9.01576C35.0103 14.4694 30.9836 18 26.2808 18C21.5471 18 17.5205 14.4694 17.5205 9.01576C17.5205 3.53065 21.5471 0 26.2808 0ZM26.2808 14.1856C28.6168 14.1856 31.1373 12.5779 31.1373 8.98424C31.1373 5.39054 28.6168 3.75131 26.2808 3.75131C23.9447 3.75131 21.4242 5.39054 21.4242 8.98424C21.4242 12.5779 23.9447 14.1856 26.2808 14.1856Z" fill="white"/>
<path d="M37.8687 12.8613C39.1904 12.8613 40.3277 13.9962 40.3277 15.3517C40.3277 16.6757 39.2212 17.8736 37.8687 17.8736C36.547 17.8736 35.4404 16.7072 35.4404 15.3517C35.4404 13.9647 36.547 12.8613 37.8687 12.8613Z" fill="white"/>
<path d="M57.0801 3.05838V0.158203H56.3731H55.0207H52.7461H51.3936H49.0576H47.7358H45.3998H44.0781H41.4961V17.6223H45.3998V4.19323H47.7358V17.6223H52.7461V4.19323H55.0207V17.6223H60.0002V3.05838H57.0801Z" fill="white"/>
</g>
<defs>
<clipPath id="clip0">
<rect width="60" height="18" fill="white"/>
</clipPath>
</defs>
</svg>
