<svg width="253" height="200" viewBox="0 0 253 200" fill="none" xmlns="http://www.w3.org/2000/svg">
<circle cx="123" cy="82" r="82" fill="black" fill-opacity="0.15"/>
<path opacity="0.5" d="M148.039 96.9943L146.029 87.7154C145.565 85.241 143.09 83.6946 140.771 84.3132L20.4547 109.985C17.9803 110.449 16.4338 112.923 17.0524 115.243L19.0628 124.522" fill="url(#paint0_linear)"/>
<path opacity="0.5" d="M111.697 104.725L107.521 84.9303C107.058 82.4559 104.583 80.9094 102.263 81.528L18.2896 99.3125C15.8153 99.7765 14.2688 102.251 14.8874 104.571L19.0629 124.52" fill="url(#paint1_linear)"/>
<path d="M126.698 24C114.944 24 105.511 33.4335 105.511 45.1868C105.511 62.3527 126.698 78.4361 126.698 78.4361C126.698 78.4361 147.884 62.3527 147.884 45.1868C147.73 33.4335 138.296 24 126.698 24Z" fill="url(#paint2_linear)"/>
<path d="M58.886 28.0195C47.1327 28.0195 37.6992 37.4531 37.6992 49.2063C37.6992 66.3722 58.886 82.4556 58.886 82.4556C58.886 82.4556 80.0727 66.3722 80.0727 49.2063C79.9181 37.4531 70.4846 28.0195 58.886 28.0195Z" fill="url(#paint3_linear)"/>
<g filter="url(#filter0_d)">
<path d="M226.982 117.932L33.5172 159.068C29.9603 159.842 26.4034 157.522 25.6301 153.965L20.5268 129.994C19.7535 126.438 22.0732 122.881 25.6301 122.107L219.095 80.9711C222.652 80.1979 226.208 82.5176 226.982 86.0745L232.085 110.2C232.858 113.756 230.539 117.159 226.982 117.932Z" fill="url(#paint4_linear)"/>
</g>
<path d="M226.604 115.11L33.1393 156.246C29.5823 157.019 26.0254 154.7 25.2522 151.143L20.1488 127.172C19.3756 123.615 21.6953 120.058 25.2522 119.285L218.717 78.1488C222.274 77.3756 225.831 79.6953 226.604 83.2522L231.707 107.377C232.48 110.934 230.161 114.336 226.604 115.11Z" fill="url(#paint5_linear)"/>
<path d="M75.5099 132.409L73.8088 124.522L71.0251 125.14L70.7158 123.439C72.4169 123.13 73.4995 121.893 73.3448 120.501L75.5099 120.037L77.9843 131.79L75.5099 132.409Z" fill="black"/>
<path d="M79.2215 121.119C79.6854 119.727 80.9226 118.645 82.6237 118.336C84.3249 118.026 85.8713 118.49 86.9539 119.418C88.0364 120.501 88.5004 121.893 88.9643 123.439C89.2736 124.986 89.2736 126.532 88.8096 127.924C88.3457 129.316 87.2632 130.398 85.4074 130.707C83.5516 131.017 82.1598 130.553 81.0773 129.625C79.9947 128.542 79.5308 127.151 79.2215 125.604C78.7575 123.903 78.6029 122.511 79.2215 121.119ZM82.7784 127.769C83.2423 128.233 83.8609 128.542 84.7888 128.388C85.7167 128.233 86.1806 127.769 86.3353 126.996C86.6446 126.223 86.6446 125.14 86.3353 123.903C86.026 122.666 85.7167 121.583 85.0981 121.119C84.6342 120.655 84.0156 120.346 83.0877 120.501C82.1598 120.655 81.6958 121.119 81.5412 121.893C81.2319 122.666 81.2319 123.748 81.5412 124.986C81.8505 126.223 82.1598 127.151 82.7784 127.769Z" fill="black"/>
<path d="M110.615 115.088L109.687 110.448L107.986 110.758L107.831 109.83C108.914 109.675 109.378 108.902 109.378 108.129L110.615 107.819L112.161 114.778L110.615 115.088Z" fill="black"/>
<path d="M114.171 111.994C114.326 112.613 114.944 113.077 115.718 112.922C116.336 112.768 116.8 112.304 116.645 111.53C116.491 110.757 115.872 110.448 115.099 110.603C114.635 110.757 114.326 111.066 114.171 111.376C114.016 111.376 112.934 111.221 112.779 111.221V107.51L116.645 106.736L116.955 107.974L114.016 108.592V110.139C114.326 109.829 114.79 109.52 115.254 109.52C116.645 109.211 117.728 109.829 118.192 111.376C118.501 112.613 117.728 114.005 116.027 114.314C114.48 114.623 113.243 113.85 112.934 112.768L114.171 111.994Z" fill="black"/>
<path d="M49.219 125.758C49.3736 126.377 49.9922 126.841 50.7655 126.686C51.384 126.531 51.848 126.067 51.6933 125.294C51.5387 124.521 50.9201 124.212 50.1469 124.366C49.6829 124.521 49.3736 124.83 49.219 125.139C49.0643 125.139 47.9818 124.985 47.8271 124.985V121.273L51.6933 120.5L52.0026 121.737L49.0643 122.356V123.902C49.3736 123.593 49.8376 123.284 50.3015 123.284C51.6933 122.974 52.7759 123.593 53.2398 125.139C53.5491 126.377 52.7759 127.768 51.0748 128.078C49.5283 128.387 48.2911 127.614 47.9818 126.531L49.219 125.758Z" fill="black"/>
<path d="M179.123 96.0658C179.123 95.9112 178.969 95.7565 178.969 95.6019C178.659 94.3647 179.433 93.1275 180.979 92.8182C182.525 92.5089 183.763 93.2821 183.917 94.5193C184.072 95.4472 183.763 96.2205 182.989 96.9937L181.752 98.0762C181.598 98.2309 181.288 98.5402 181.288 98.8495L184.691 98.0762L185 99.3134L179.896 100.396C179.587 99.1588 179.896 98.0762 180.824 97.1483L181.752 96.2205C182.216 95.7565 182.371 95.2926 182.371 94.8286C182.216 94.3647 181.752 93.9007 181.134 94.0554C180.36 94.21 180.206 94.8286 180.206 95.4472C180.206 95.6019 180.36 95.7565 180.36 95.7565L179.123 96.0658Z" fill="black"/>
<path d="M186.546 96.5295C186.701 97.1481 187.319 97.612 188.093 97.4574C188.711 97.3028 189.175 96.8388 189.02 96.0656C188.866 95.2923 188.247 94.983 187.474 95.1377C187.01 95.2923 186.701 95.6016 186.546 95.9109C186.391 95.9109 185.309 95.7563 185.154 95.7563V92.0447L189.02 91.2715L189.33 92.5087L186.391 93.1273V94.6737C186.701 94.3644 187.165 94.0551 187.629 94.0551C189.021 93.7458 190.103 94.3644 190.567 95.9109C190.876 97.1481 190.103 98.5399 188.402 98.8492C186.855 99.1585 185.618 98.3853 185.309 97.3028L186.546 96.5295Z" fill="black"/>
<path d="M26.9503 131.79C27.2595 130.862 28.0328 130.244 29.27 129.934C30.5072 129.625 31.435 130.089 32.0536 130.708C32.8269 131.481 33.1362 132.409 33.2908 133.337C33.4455 134.265 33.6001 135.347 33.1362 136.275C32.8269 137.203 32.0536 137.821 30.8164 138.131C29.5793 138.44 28.6514 137.976 27.8781 137.357C27.1049 136.584 26.7956 135.656 26.641 134.728C26.641 133.801 26.4863 132.718 26.9503 131.79ZM29.27 136.275C29.5793 136.584 30.0432 136.739 30.6618 136.739C31.2804 136.584 31.5897 136.275 31.7443 135.811C31.899 135.347 31.899 134.574 31.7443 133.801C31.5897 133.027 31.2804 132.254 30.8164 131.945C30.5072 131.636 30.0432 131.481 29.5793 131.481C28.9607 131.636 28.6514 131.945 28.4967 132.409C28.3421 132.873 28.3421 133.646 28.4967 134.419C28.6514 135.192 28.9607 135.966 29.27 136.275Z" fill="black"/>
<path d="M77.3407 107.902L75.8281 108.224L77.405 115.635L78.9177 115.314L77.3407 107.902Z" fill="black"/>
<path d="M141.235 110.758C141.235 110.603 141.08 110.294 140.926 109.985C140.462 107.974 141.699 105.655 144.328 105.191C146.957 104.572 148.967 105.964 149.431 108.129C149.741 109.675 149.122 111.067 147.885 112.304L145.875 114.16C145.411 114.469 145.101 114.933 145.101 115.397L150.669 114.16L151.133 116.325L142.472 118.181C142.008 116.171 142.318 114.315 144.173 112.614L145.875 111.067C146.802 110.294 146.957 109.521 146.802 108.747C146.648 107.82 145.875 107.201 144.637 107.51C143.4 107.82 142.936 108.747 143.245 109.83C143.245 109.985 143.4 110.294 143.4 110.449L141.235 110.758Z" fill="black"/>
<path d="M151.442 105.654C151.906 104.262 153.143 103.18 154.844 102.871C156.7 102.407 158.092 103.025 159.174 103.953C160.257 105.036 160.721 106.428 161.185 107.974C161.494 109.521 161.494 111.067 161.03 112.459C160.566 113.851 159.483 114.933 157.628 115.242C155.772 115.706 154.38 115.088 153.297 114.16C152.215 113.077 151.751 111.686 151.442 110.139C150.978 108.593 150.978 107.046 151.442 105.654ZM155.153 112.459C155.617 112.923 156.236 113.232 157.164 113.077C158.092 112.923 158.401 112.459 158.71 111.686C159.019 110.912 159.019 109.83 158.71 108.593C158.401 107.355 158.092 106.273 157.473 105.809C157.009 105.345 156.39 105.036 155.463 105.19C154.535 105.345 154.071 105.809 153.916 106.582C153.607 107.355 153.607 108.438 153.916 109.675C154.225 110.912 154.535 111.84 155.153 112.459Z" fill="black"/>
<path d="M208.507 95.139L210.208 92.9739L206.805 93.7472L206.496 92.3553L212.063 91.1182L212.373 92.51L210.672 94.6751C211.909 94.5204 213.146 95.139 213.455 96.5308C213.765 97.9227 212.837 99.3145 210.981 99.7784C209.125 100.242 207.733 99.1599 207.424 97.9227L208.97 97.3041C209.125 98.0773 209.898 98.5413 210.672 98.3866C211.445 98.232 211.909 97.6134 211.754 96.9948C211.599 96.2215 210.981 95.9122 210.208 96.0669C209.898 96.0669 209.744 96.2215 209.589 96.3762L208.507 95.139Z" fill="black"/>
<path d="M214.074 91.8917C214.384 90.9638 215.157 90.3452 216.394 90.0359C217.631 89.7267 218.559 90.1906 219.178 90.8092C219.951 91.5824 220.26 92.5103 220.415 93.4382C220.569 94.3661 220.724 95.4486 220.26 96.3765C219.951 97.3044 219.178 97.923 217.94 98.2323C216.703 98.5416 215.775 98.0776 215.002 97.459C214.229 96.6858 213.92 95.7579 213.765 94.83C213.765 93.7475 213.61 92.8196 214.074 91.8917ZM216.394 96.3765C216.703 96.6858 217.167 96.8405 217.786 96.8405C218.404 96.6858 218.714 96.3765 218.868 95.9126C219.023 95.4486 219.023 94.6754 218.868 93.7475C218.714 92.8196 218.404 92.201 217.94 91.8917C217.631 91.5824 217.167 91.4278 216.703 91.4278C216.085 91.5824 215.775 91.8917 215.621 92.3557C215.466 92.8196 215.466 93.5928 215.621 94.3661C215.775 95.1393 216.085 95.9126 216.394 96.3765Z" fill="black"/>
<path d="M148.472 92.7377L146.959 93.0596L148.536 100.471L150.049 100.15L148.472 92.7377Z" fill="black"/>
<defs>
<filter id="filter0_d" x="0.37793" y="80.8223" width="251.856" height="118.395" filterUnits="userSpaceOnUse" color-interpolation-filters="sRGB">
<feFlood flood-opacity="0" result="BackgroundImageFix"/>
<feColorMatrix in="SourceAlpha" type="matrix" values="0 0 0 0 0 0 0 0 0 0 0 0 0 0 0 0 0 0 127 0"/>
<feOffset dy="20"/>
<feGaussianBlur stdDeviation="10"/>
<feColorMatrix type="matrix" values="0 0 0 0 0 0 0 0 0 0 0 0 0 0 0 0 0 0 0.25 0"/>
<feBlend mode="normal" in2="BackgroundImageFix" result="effect1_dropShadow"/>
<feBlend mode="normal" in="SourceGraphic" in2="effect1_dropShadow" result="shape"/>
</filter>
<linearGradient id="paint0_linear" x1="17.6019" y1="117.686" x2="146.604" y2="90.2391" gradientUnits="userSpaceOnUse">
<stop stop-color="#DF185E"/>
<stop offset="0.9972" stop-color="#DE6C2E"/>
</linearGradient>
<linearGradient id="paint1_linear" x1="16.4756" y1="112.39" x2="109.175" y2="92.6672" gradientUnits="userSpaceOnUse">
<stop stop-color="#04A8A0"/>
<stop offset="0.9995" stop-color="#ABFFB0"/>
</linearGradient>
<linearGradient id="paint2_linear" x1="105.478" y1="51.1922" x2="147.777" y2="51.1922" gradientUnits="userSpaceOnUse">
<stop stop-color="#FF3079"/>
<stop offset="0.9972" stop-color="#DE6C2E"/>
</linearGradient>
<linearGradient id="paint3_linear" x1="37.6701" y1="55.2195" x2="79.9691" y2="55.2195" gradientUnits="userSpaceOnUse">
<stop stop-color="#04A8A0"/>
<stop offset="0.9995" stop-color="#ABFFB0"/>
</linearGradient>
<linearGradient id="paint4_linear" x1="23.1342" y1="141.987" x2="229.552" y2="98.0693" gradientUnits="userSpaceOnUse">
<stop offset="0.00416421" stop-color="#A5BB1A"/>
<stop offset="0.9995" stop-color="#E3B619"/>
</linearGradient>
<linearGradient id="paint5_linear" x1="22.7563" y1="139.164" x2="229.174" y2="95.247" gradientUnits="userSpaceOnUse">
<stop offset="0.00416421" stop-color="#E0FA3D"/>
<stop offset="0.9995" stop-color="#FFCB16"/>
</linearGradient>
</defs>
</svg>
