<svg width="36" height="36" viewBox="0 0 36 36" fill="none" xmlns="http://www.w3.org/2000/svg">
<path fill-rule="evenodd" clip-rule="evenodd" d="M18 3C9.72 3 3 9.72 3 18C3 26.28 9.72 33 18 33C26.28 33 33 26.28 33 18C33 9.72 26.28 3 18 3ZM10.6052 27.42C11.2502 26.07 15.1802 24.75 18.0002 24.75C20.8202 24.75 24.7652 26.07 25.3952 27.42C23.3552 29.04 20.7902 30 18.0002 30C15.2102 30 12.6452 29.04 10.6052 27.42ZM18 21.75C20.19 21.75 25.395 22.635 27.54 25.245C29.07 23.235 30 20.73 30 18C30 11.385 24.615 6 18 6C11.385 6 6 11.385 6 18C6 20.73 6.93 23.235 8.46 25.245C10.605 22.635 15.81 21.75 18 21.75ZM18 9C15.09 9 12.75 11.34 12.75 14.25C12.75 17.16 15.09 19.5 18 19.5C20.91 19.5 23.25 17.16 23.25 14.25C23.25 11.34 20.91 9 18 9ZM15.75 14.25C15.75 15.495 16.755 16.5 18 16.5C19.245 16.5 20.25 15.495 20.25 14.25C20.25 13.005 19.245 12 18 12C16.755 12 15.75 13.005 15.75 14.25Z" fill="black"/>
</svg>
