<svg width="18" height="18" viewBox="0 0 18 18" fill="none" xmlns="http://www.w3.org/2000/svg">
<g id="icon/navigation/cancel_24px">
<path id="icon/navigation/cancel_24px_2" fill-rule="evenodd" clip-rule="evenodd" d="M9 3C5.682 3 3 5.682 3 9C3 12.318 5.682 15 9 15C12.318 15 15 12.318 15 9C15 5.682 12.318 3 9 3ZM9 13.8C6.354 13.8 4.2 11.646 4.2 9C4.2 6.354 6.354 4.2 9 4.2C11.646 4.2 13.8 6.354 13.8 9C13.8 11.646 11.646 13.8 9 13.8ZM9 8.154L11.154 6L12 6.846L9.846 9L12 11.154L11.154 12L9 9.846L6.846 12L6 11.154L8.154 9L6 6.846L6.846 6L9 8.154Z" fill="white" fill-opacity="0.3"/>
</g>
</svg>
