<svg width="18" height="18" viewBox="0 0 18 18" fill="none" xmlns="http://www.w3.org/2000/svg">
<g clip-path="url(#clip0)">
<path d="M9 1.125C7.44248 1.125 5.91992 1.58686 4.62489 2.45218C3.32985 3.31749 2.32049 4.5474 1.72445 5.98637C1.12841 7.42534 0.972461 9.00874 1.27632 10.5363C1.58018 12.0639 2.3302 13.4671 3.43154 14.5685C4.53288 15.6698 5.93607 16.4198 7.46367 16.7237C8.99127 17.0275 10.5747 16.8716 12.0136 16.2756C13.4526 15.6795 14.6825 14.6702 15.5478 13.3751C16.4131 12.0801 16.875 10.5575 16.875 9C16.875 6.91142 16.0453 4.90838 14.5685 3.43153C13.0916 1.95469 11.0886 1.125 9 1.125V1.125ZM9 15.75C7.66498 15.75 6.35994 15.3541 5.2499 14.6124C4.13987 13.8707 3.27471 12.8165 2.76382 11.5831C2.25293 10.3497 2.11925 8.99251 2.3797 7.68314C2.64015 6.37377 3.28303 5.17103 4.22703 4.22703C5.17104 3.28302 6.37377 2.64015 7.68314 2.3797C8.99252 2.11925 10.3497 2.25292 11.5831 2.76381C12.8165 3.2747 13.8707 4.13987 14.6124 5.2499C15.3541 6.35993 15.75 7.66498 15.75 9C15.75 10.7902 15.0388 12.5071 13.773 13.773C12.5071 15.0388 10.7902 15.75 9 15.75Z" fill="white"/>
<path d="M9.5625 8.81437V3.9375C9.5625 3.78832 9.50324 3.64524 9.39775 3.53975C9.29226 3.43426 9.14918 3.375 9 3.375C8.85082 3.375 8.70774 3.43426 8.60225 3.53975C8.49676 3.64524 8.4375 3.78832 8.4375 3.9375V9C8.4375 9.12171 8.47697 9.24013 8.55 9.3375L10.2375 11.5875C10.2818 11.6466 10.3373 11.6964 10.4009 11.734C10.4645 11.7717 10.5348 11.7964 10.608 11.8068C10.6811 11.8173 10.7555 11.8132 10.8271 11.7949C10.8987 11.7766 10.9659 11.7443 11.025 11.7C11.0841 11.6557 11.1339 11.6002 11.1715 11.5366C11.2092 11.473 11.2339 11.4027 11.2443 11.3295C11.2548 11.2564 11.2507 11.182 11.2324 11.1104C11.2141 11.0388 11.1818 10.9716 11.1375 10.9125L9.5625 8.81437Z" fill="white"/>
</g>
<defs>
<clipPath id="clip0">
<rect width="26.087" height="26.087" fill="white" transform="scale(0.69)"/>
</clipPath>
</defs>
</svg>
