<svg width="25" height="27" viewBox="0 0 25 27" fill="none" xmlns="http://www.w3.org/2000/svg">
<path d="M10.8579 26.1729C12.4387 26.0918 14.0061 25.7607 15.4725 25.1797C16.939 24.6054 18.2978 23.7812 19.4817 22.7543C20.6656 21.7273 21.6679 20.5045 22.4213 19.1397C23.1747 17.775 23.6792 16.2819 23.8878 14.7618C23.9954 14.0051 24.0358 13.2416 24.0021 12.485C23.9954 12.2958 23.9819 12.1134 23.9685 11.931L23.9416 11.6607L23.9147 11.3905C23.8743 11.0256 23.8138 10.6676 23.7465 10.3095C23.464 8.87718 22.9595 7.48542 22.233 6.21527C21.5065 4.94512 20.5647 3.81009 19.4481 2.88451C18.8897 2.41833 18.2911 2.01297 17.6655 1.66165C17.0399 1.31033 16.3806 1.02657 15.7147 0.796865C14.3761 0.344206 12.9769 0.148277 11.6248 0.175303L11.3692 0.182058L11.1135 0.19557C10.9454 0.202326 10.7705 0.215837 10.6023 0.236107C10.266 0.269888 9.92963 0.317181 9.59329 0.371229C8.92733 0.486084 8.27483 0.661741 7.64251 0.877937C6.37787 1.31709 5.19395 1.95892 4.15129 2.76965C3.10864 3.58039 2.20052 4.57354 1.52111 5.69505C0.834973 6.80981 0.370822 8.05294 0.162291 9.31633C-0.0529673 10.573 -0.02606 11.8499 0.189198 13.0795C0.296827 13.6943 0.458271 14.2956 0.666802 14.8766C0.767704 15.1671 0.88206 15.4509 1.00314 15.7346C1.13095 16.0116 1.25876 16.2886 1.40675 16.5589C1.69601 17.0926 2.02562 17.6061 2.38214 18.0925C2.74539 18.5655 3.14227 19.0249 3.57951 19.4302C3.19608 18.9708 2.86647 18.4709 2.57722 17.9574C2.28796 17.4439 2.03235 16.9102 1.81709 16.363C1.70946 16.0927 1.61528 15.809 1.53456 15.532C1.45384 15.2482 1.37312 14.9712 1.3193 14.6874C1.19822 14.1199 1.1175 13.5457 1.09059 12.9714C1.03678 11.8296 1.16459 10.6811 1.4942 9.62036C1.82381 8.55965 2.34851 7.58001 3.02791 6.74225C3.70732 5.90449 4.54145 5.20861 5.46302 4.66812C6.3846 4.13439 7.38689 3.75604 8.40937 3.54661C8.92061 3.43851 9.43857 3.3777 9.95654 3.35744C10.2122 3.34392 10.4745 3.34392 10.7301 3.35744C10.8579 3.36419 10.9857 3.37095 11.1135 3.3777L11.3086 3.39122L11.5037 3.41148C12.5262 3.52634 13.4948 3.81009 14.3693 4.23573C14.8066 4.45193 15.2169 4.7019 15.6003 4.98566C15.9838 5.26942 16.3336 5.59371 16.6497 5.93827C17.282 6.63415 17.7865 7.43813 18.1363 8.30291C18.4861 9.1677 18.6879 10.0933 18.7418 11.0189C18.7552 11.2486 18.7619 11.485 18.7552 11.7148L18.7485 11.8904L18.7418 12.0661C18.735 12.1809 18.7283 12.3025 18.7148 12.4106C18.6745 12.8498 18.587 13.2822 18.466 13.6943C18.2305 14.5185 17.8404 15.282 17.3359 15.9508C16.8313 16.6197 16.2125 17.1872 15.5196 17.6264C14.8268 18.0723 14.0599 18.3898 13.2729 18.5722C12.4858 18.7614 11.6719 18.8087 10.8714 18.7276C8.82643 18.5317 7.01692 20.0383 6.82184 22.0854C6.62676 24.1393 8.12684 25.9567 10.1651 26.1526C10.34 26.1661 10.5081 26.1729 10.683 26.1661L10.8579 26.1729Z" fill="black"/>
</svg>
