<svg width="16" height="16" viewBox="0 0 16 16" fill="none" xmlns="http://www.w3.org/2000/svg">
<g id="icon/maps/directions_car_24px">
<path id="icon/maps/directions_car_24px_2" fill-rule="evenodd" clip-rule="evenodd" d="M12.6133 3.34033C12.48 2.94699 12.1067 2.66699 11.6667 2.66699H4.33333C3.89333 2.66699 3.52667 2.94699 3.38667 3.34033L2 7.33366V12.667C2 13.0337 2.3 13.3337 2.66667 13.3337H3.33333C3.7 13.3337 4 13.0337 4 12.667V12.0003H12V12.667C12 13.0337 12.3 13.3337 12.6667 13.3337H13.3333C13.7 13.3337 14 13.0337 14 12.667V7.33366L12.6133 3.34033ZM4.56666 4.00033H11.4267L12.1467 6.07366H3.84666L4.56666 4.00033ZM3.33333 10.667H12.6667V7.33366H3.33333V10.667ZM5 8.00033C4.44772 8.00033 4 8.44804 4 9.00033C4 9.55261 4.44772 10.0003 5 10.0003C5.55228 10.0003 6 9.55261 6 9.00033C6 8.44804 5.55228 8.00033 5 8.00033ZM10 9.00033C10 8.44804 10.4477 8.00033 11 8.00033C11.5523 8.00033 12 8.44804 12 9.00033C12 9.55261 11.5523 10.0003 11 10.0003C10.4477 10.0003 10 9.55261 10 9.00033Z" fill="white"/>
</g>
</svg>
