<svg width="128" height="128" viewBox="0 0 128 128" fill="none" xmlns="http://www.w3.org/2000/svg">
<path d="M64 128C61.6 128 59.4 127 57.8 125.2L51.8 118.6C50.6 117.4 49 116.8 47.4 117.4L38.8 120.2C38 120.4 37.2 120.6 36.2 120.6C32.4 120.6 29 117.8 28 114L26 105.2C25.6 103.6 24.4 102.2 22.8 102L14 100C11.8 99.6 9.8 98 8.6 96C7.4 94 7.2 91.6 7.8 89.4L10.6 80.8C11.2 79.2 10.6 77.4 9.4 76.4L2.8 70.4C1 68.6 0 66.4 0 64C0 61.6 1 59.4 2.8 57.8L9.4 51.8C10.6 50.6 11.2 49 10.6 47.4L7.8 38.8C7.2 36.4 7.4 34 8.6 32C9.8 30 11.8 28.6 14 28L22.8 26C24.4 25.6 25.8 24.4 26 22.8L28 14C28.8 10.2 32.2 7.4 36.2 7.4C37 7.4 38 7.6 38.8 7.8L47.4 10.6C49 11.2 50.8 10.6 51.8 9.4L57.8 2.8C59.4 1 61.6 0 64 0C66.4 0 68.6 1 70.2 2.8L76.2 9.4C77.4 10.6 79.2 11.2 80.6 10.6L89.2 7.8C90 7.6 90.8 7.4 91.8 7.4C95.6 7.4 99 10.2 100 14L102 22.8C102.4 24.4 103.6 25.8 105.2 26L114 28C116.2 28.4 118.2 30 119.4 32C120.6 34 120.8 36.4 120.2 38.6L117.4 47.2C116.8 48.8 117.4 50.6 118.6 51.6L125.2 57.6C127 59.2 128 61.4 128 63.8C128 66.2 127 68.4 125.2 70L118.6 76C117.4 77.2 116.8 78.8 117.4 80.4L120.2 89C121 91.2 120.6 93.6 119.4 95.6C118.2 97.6 116.2 99 114 99.6L105.2 101.6C103.6 102 102.2 103.2 102 104.8L100 114C99.2 117.8 95.8 120.6 91.8 120.6C91 120.6 90 120.4 89.2 120.2L80.6 117.4C79 116.8 77.2 117.4 76.2 118.6L70.2 125.2C68.6 127 66.4 128 64 128ZM48.6 113.2C51 113.2 53.2 114.2 54.8 116L60.8 122.6C62.4 124.4 65.6 124.4 67.2 122.6L73.2 116C75.4 113.6 78.8 112.8 81.8 113.6L90.4 116.4C92.8 117.2 95.4 115.6 95.8 113.2L97.8 104.4C98.4 101.2 101 98.8 104.2 98L113 96C114.2 95.8 115.2 95 115.8 94C116.4 93 116.6 91.8 116.2 90.6L113.6 82C112.6 79 113.6 75.6 116 73.4L122.6 67.4C123.6 66.6 124 65.4 124 64.2C124 63 123.6 61.8 122.6 61L116 55C113.6 52.8 112.8 49.4 113.6 46.4L116.4 37.8C116.8 36.6 116.6 35.4 116 34.4C115.4 33.4 114.4 32.6 113.2 32.4L104.4 30.4C101.2 29.8 98.8 27.2 98 24L96 15.2C95.4 12.8 92.8 11.2 90.6 12L82 14.4C79 15.4 75.4 14.4 73.4 12L67.4 5.4C65.8 3.6 62.6 3.6 61 5.4L55 12C53.4 13.8 51.2 14.8 48.8 14.8C48 14.8 47 14.6 46.2 14.4L37.6 11.6C35.2 10.8 32.6 12.4 32.2 14.8L30.2 23.6C29.6 26.8 27 29.2 23.8 30L15 32C13.8 32.2 12.8 33 12.2 34C11.6 35 11.4 36.2 11.8 37.4L14.4 46C15.4 49 14.4 52.4 12 54.6L5.4 60.6C4.4 61.6 4 62.8 4 64C4 65.2 4.4 66.4 5.4 67.2L12 73.2C14.4 75.4 15.2 78.8 14.4 81.8L11.6 90.4C11.2 91.8 11.4 93 12 94C12.6 95 13.6 95.8 14.8 96L23.6 98C26.8 98.6 29.2 101.2 30 104.4L32 113.2C32.6 115.6 35.2 117.2 37.4 116.4L46 113.6C46.8 113.4 47.8 113.2 48.6 113.2Z" fill="white"/>
<path d="M53.3992 86.0002C52.9992 86.0002 52.7992 85.8002 52.3992 85.6002C51.7992 85.0002 51.7992 84.2002 52.3992 83.8002L89.5992 46.4002C90.1992 45.8002 90.9992 45.8002 91.3992 46.4002C91.9992 47.0002 91.9992 47.8002 91.3992 48.2002L54.3992 85.6002C54.1992 85.8002 53.7992 86.0002 53.3992 86.0002Z" fill="white" stroke="white" stroke-miterlimit="10"/>
<path d="M53.3992 86.0004C52.9992 86.0004 52.7992 85.8004 52.3992 85.6004L36.3992 69.4004C35.7992 68.8004 35.7992 68.0004 36.3992 67.6004C36.9992 67.0004 37.7992 67.0004 38.1992 67.6004L54.1992 83.8004C54.7992 84.4004 54.7992 85.2004 54.1992 85.6004C54.1992 85.8004 53.7992 86.0004 53.3992 86.0004Z" fill="white" stroke="white" stroke-miterlimit="10"/>
</svg>
