<svg width="24" height="24" viewBox="0 0 24 24" fill="none" xmlns="http://www.w3.org/2000/svg">
<path d="M12.0217 0.0898438C5.40745 0.0898438 0.0439453 5.5438 0.0439453 12.2721C0.0439453 17.6547 3.47594 22.2212 8.23509 23.832C8.8337 23.9448 9.05347 23.5678 9.05347 23.246C9.05347 22.9555 9.04236 21.9958 9.0372 20.9779C5.70497 21.7148 5.00183 19.5405 5.00183 19.5405C4.45697 18.1324 3.67191 17.7579 3.67191 17.7579C2.58517 17.0018 3.75383 17.0174 3.75383 17.0174C4.95661 17.1031 5.58993 18.2728 5.58993 18.2728C6.65823 20.1352 8.39198 19.5968 9.07548 19.2855C9.18299 18.4983 9.4934 17.9605 9.83595 17.6565C7.17552 17.3484 4.37882 16.3038 4.37882 11.6358C4.37882 10.3058 4.84672 9.21903 5.61294 8.36589C5.48857 8.05885 5.07859 6.81998 5.72897 5.14194C5.72897 5.14194 6.73479 4.81452 9.02371 6.39069C9.97915 6.12076 11.0038 5.9854 12.0217 5.98076C13.0396 5.9854 14.0651 6.12076 15.0223 6.39069C17.3085 4.81452 18.3129 5.14194 18.3129 5.14194C18.9649 6.81998 18.5547 8.05885 18.4303 8.36589C19.1983 9.21903 19.6631 10.3058 19.6631 11.6358C19.6631 16.3149 16.861 17.3452 14.1938 17.6468C14.6234 18.0248 15.0063 18.7662 15.0063 19.9028C15.0063 21.5326 14.9924 22.8445 14.9924 23.246C14.9924 23.5702 15.208 23.9501 15.8151 23.8304C20.5717 22.2177 23.9993 17.6528 23.9993 12.2721C23.9993 5.5438 18.6366 0.0898438 12.0217 0.0898438Z" fill="white"/>
<path d="M4.58055 17.5806C4.55417 17.6413 4.46055 17.6592 4.37526 17.6177C4.28838 17.5779 4.23959 17.4954 4.26775 17.4347C4.29354 17.3724 4.38736 17.3552 4.47403 17.3966C4.56111 17.4365 4.6107 17.5198 4.58055 17.5806Z" fill="white" fill-opacity="0.15"/>
<path d="M5.06589 18.1317C5.00877 18.1856 4.8971 18.1606 4.82133 18.0755C4.74298 17.9905 4.7283 17.8769 4.78622 17.8223C4.84513 17.7684 4.95343 17.7936 5.03197 17.8786C5.11032 17.9645 5.12559 18.0773 5.06589 18.1317Z" fill="white" fill-opacity="0.15"/>
<path d="M5.53823 18.8327C5.46485 18.8846 5.34485 18.836 5.27066 18.7276C5.19728 18.6193 5.19728 18.4894 5.27225 18.4373C5.34663 18.3853 5.46485 18.4321 5.54002 18.5396C5.61321 18.6496 5.61321 18.7797 5.53823 18.8327Z" fill="white" fill-opacity="0.15"/>
<path d="M6.18537 19.5105C6.11972 19.5841 5.97988 19.5643 5.87753 19.4639C5.77281 19.3656 5.74365 19.2262 5.8095 19.1526C5.87595 19.0788 6.01658 19.0995 6.11972 19.1992C6.22365 19.2972 6.25539 19.4377 6.18537 19.5105Z" fill="white" fill-opacity="0.15"/>
<path d="M7.0772 19.9048C7.04824 20.0002 6.91356 20.0436 6.7779 20.003C6.64242 19.9612 6.55376 19.8495 6.58113 19.753C6.6093 19.657 6.74457 19.6118 6.88123 19.6552C7.01651 19.6968 7.10537 19.8077 7.0772 19.9048Z" fill="white" fill-opacity="0.15"/>
<path d="M8.05768 19.9776C8.06105 20.0781 7.94601 20.1614 7.8036 20.163C7.66039 20.1664 7.54456 20.0851 7.54297 19.9863C7.54297 19.8848 7.65543 19.8023 7.79864 19.7999C7.94105 19.7971 8.05768 19.8777 8.05768 19.9776Z" fill="white" fill-opacity="0.15"/>
<path d="M8.96967 19.82C8.98673 19.918 8.88775 20.0187 8.74633 20.0453C8.60729 20.0713 8.47856 20.0108 8.46091 19.9136C8.44365 19.8131 8.54441 19.7124 8.68326 19.6864C8.82488 19.6614 8.95162 19.7203 8.96967 19.82Z" fill="white" fill-opacity="0.15"/>
</svg>
