<svg width="60" height="18" viewBox="0 0 60 18" fill="none" xmlns="http://www.w3.org/2000/svg">
<path d="M9.43648 5.49088C9.31353 4.71533 8.66803 3.35037 6.63934 3.35037C5.22541 3.35037 4.33402 4.25 4.33402 5.18066C4.33402 5.98723 4.82582 6.60767 5.99385 6.82482L8.23771 7.25912C11.4344 7.84854 13.0943 9.95803 13.0943 12.3777C13.0943 15.0456 10.8811 17.7445 6.88525 17.7445C2.24385 17.7135 0.245902 14.6734 0 12.2537L3.44262 11.4161C3.59631 12.9672 4.64139 14.3321 6.94672 14.3321C8.42213 14.3321 9.31353 13.6186 9.31353 12.5639C9.31353 11.6953 8.6373 11.0748 7.5 10.8577L5.19467 10.4234C2.33607 9.89599 0.614754 7.97263 0.614754 5.45986C0.614754 2.2646 3.41189 0 6.63934 0C10.8504 0 12.418 2.5438 12.7869 4.5292L9.43648 5.49088Z" fill="black" fill-opacity="0.1"/>
<path d="M15.6148 12.6572C16.9365 12.6572 18.0738 13.774 18.0738 15.108C18.0738 16.4109 16.9673 17.5897 15.6148 17.5897C14.2931 17.5897 13.1865 16.4419 13.1865 15.108C13.1865 13.743 14.2623 12.6572 15.6148 12.6572Z" fill="black" fill-opacity="0.1"/>
<path d="M26.2808 0C31.0144 0 35.0103 3.47445 35.0103 8.87226C35.0103 14.239 30.9836 17.7135 26.2808 17.7135C21.5471 17.7135 17.5205 14.239 17.5205 8.87226C17.5205 3.47445 21.5471 0 26.2808 0ZM26.2808 13.9599C28.6168 13.9599 31.1373 12.3777 31.1373 8.84124C31.1373 5.30474 28.6168 3.69161 26.2808 3.69161C23.9447 3.69161 21.4242 5.30474 21.4242 8.84124C21.4242 12.3777 23.9447 13.9599 26.2808 13.9599Z" fill="black" fill-opacity="0.1"/>
<path d="M37.8687 12.6572C39.1904 12.6572 40.3277 13.774 40.3277 15.108C40.3277 16.4109 39.2212 17.5897 37.8687 17.5897C36.547 17.5897 35.4404 16.4419 35.4404 15.108C35.4404 13.743 36.547 12.6572 37.8687 12.6572Z" fill="black" fill-opacity="0.1"/>
<path d="M57.0801 3.00929V0.155273H56.3731H55.0207H52.7461H51.3936H49.0576H47.7359H45.3998H44.0781H41.4961V17.3414H45.3998V4.12608H47.7359V17.3414H52.7461V4.12608H55.0207V17.3414H60.0002V3.00929H57.0801Z" fill="black" fill-opacity="0.1"/>
</svg>
