<svg width="219" height="219" viewBox="0 0 219 219" fill="none" xmlns="http://www.w3.org/2000/svg">
<g clip-path="url(#clip0)">
<path d="M214.978 0.70932C214.268 -0.00018299 213.086 -0.236684 212.14 0.236318L197.004 6.85835C195.112 7.80436 193.456 9.69636 192.983 11.8249L189.199 20.5754L198.423 29.799L207.41 26.0149C209.538 25.5419 211.194 23.8864 212.376 21.9944L218.998 6.85835C219.471 5.91235 219.235 4.72984 218.525 4.02034L214.978 0.70932Z" fill="#452F27"/>
<path d="M199.368 11.5884C198.658 12.2979 197.712 12.2979 197.239 11.5884C196.53 10.8789 196.53 9.93286 197.239 9.45986C197.949 8.75036 198.895 8.75036 199.368 9.45986C200.077 9.93286 200.077 11.1154 199.368 11.5884Z" fill="#FFAD42"/>
<path d="M203.863 9.46043C204.777 9.46043 205.518 8.71923 205.518 7.80492C205.518 6.89061 204.777 6.14941 203.863 6.14941C202.948 6.14941 202.207 6.89061 202.207 7.80492C202.207 8.71923 202.948 9.46043 203.863 9.46043Z" fill="#FFAD42"/>
<path d="M211.195 6.38525C210.486 7.09475 209.54 7.09475 209.067 6.38525C208.594 5.67574 208.357 4.72974 209.067 4.25674C209.776 3.54723 210.722 3.54723 211.195 4.25674C211.668 4.72974 211.668 5.67574 211.195 6.38525Z" fill="#FFAD42"/>
<path d="M208.593 22.4682C209.507 22.4682 210.249 21.727 210.249 20.8127C210.249 19.8984 209.507 19.1572 208.593 19.1572C207.679 19.1572 206.938 19.8984 206.938 20.8127C206.938 21.727 207.679 22.4682 208.593 22.4682Z" fill="#FFAD42"/>
<path d="M210.247 13.9534C209.537 14.6629 209.537 15.6089 210.247 16.0819C210.956 16.7914 211.902 16.7914 212.375 16.0819C213.085 15.3724 213.085 14.4264 212.375 13.9534C211.902 13.4804 210.72 13.4804 210.247 13.9534Z" fill="#FFAD42"/>
<path d="M212.849 8.04154C212.139 8.75104 212.139 9.69705 212.849 10.17C213.558 10.8796 214.504 10.8796 214.977 10.17C215.687 9.46054 215.687 8.51454 214.977 8.04154C214.268 7.56854 213.322 7.33204 212.849 8.04154Z" fill="#FFAD42"/>
<path d="M88.9228 215.453L126.763 116.832C126.763 116.832 130.31 107.372 127.472 104.77L114.465 91.7626C111.627 88.9246 102.403 92.4721 102.403 92.4721L3.78239 130.312C-0.00162742 131.968 -0.947632 137.171 1.89038 140.009C2.83639 141.191 4.49189 141.901 5.9109 141.901L71.6582 143.793C73.5502 143.793 75.2057 145.448 75.2057 147.34L77.0977 213.088C77.0977 214.743 77.8072 216.162 78.7532 217.108C82.0642 220.419 87.0308 219.473 88.9228 215.453Z" fill="url(#paint0_linear)"/>
<path d="M102.166 166.97L124.397 109.027C124.397 109.027 126.526 103.587 124.87 101.932L117.302 94.3638C115.647 92.7083 110.207 94.8368 110.207 94.8368L52.0278 117.068C49.6628 118.014 49.1898 121.088 50.8453 122.744C51.5548 123.453 52.2643 123.69 53.2103 123.69L91.76 124.872C92.9425 124.872 93.8885 125.818 93.8885 127.001L95.3075 165.551C95.3075 166.497 95.7805 167.206 96.2535 167.916C98.1455 169.808 101.22 169.335 102.166 166.97Z" fill="white"/>
<path d="M104.06 126.055L93.1808 115.176C92.2348 114.23 92.2348 112.338 93.6538 111.155C94.8363 109.973 96.4918 109.736 97.4378 110.682L108.317 121.561C109.263 122.507 109.026 124.163 107.844 125.345C106.661 126.764 105.006 127.001 104.06 126.055Z" fill="#FFB300"/>
<path d="M113.283 116.831L102.404 105.952C101.458 105.006 101.695 103.351 102.877 102.168C104.06 100.986 105.715 100.749 106.661 101.695L117.54 112.574C118.486 113.52 118.25 115.176 117.067 116.358C115.885 117.541 114.229 117.777 113.283 116.831Z" fill="#FFB300"/>
<path d="M197.713 30.7452L188.253 21.2852L114.465 91.526L127.472 104.77L197.713 30.7452Z" fill="#5C3E33"/>
<path d="M92.7057 141.428L77.5696 126.292C77.0966 125.819 77.0966 124.873 77.5696 124.4L80.1711 121.798C80.6441 121.325 81.5901 121.325 82.0631 121.798L97.1992 136.934C97.6722 137.407 97.6722 138.353 97.1992 138.826L94.5977 141.428C94.1247 141.901 93.1787 141.901 92.7057 141.428Z" fill="#3D3D3D"/>
<path opacity="0.15" d="M3.07187 130.549C2.12586 131.022 1.41636 131.731 0.943359 132.677L3.07187 130.549Z" fill="black"/>
<path d="M79.4629 139.536L193.693 25.542" stroke="#D3D3D3" stroke-width="1.75" stroke-miterlimit="10"/>
<path d="M75.2051 135.279C75.2051 135.279 120.613 92.7085 108.315 54.3953C106.66 48.9558 95.7807 35.7117 85.1381 48.0098" stroke="#D3D3D3" stroke-width="1.75" stroke-miterlimit="10"/>
<path d="M83.4824 144.265L196.766 28.3799" stroke="#D3D3D3" stroke-width="1.75" stroke-miterlimit="10"/>
<path d="M190.145 22.4676C190.145 22.4676 172.171 45.6447 144.5 42.8067C124.161 40.9146 123.688 20.1026 133.148 12.0615" stroke="#D3D3D3" stroke-width="1.75" stroke-miterlimit="10"/>
<path d="M199.133 29.5626L189.436 20.1025L188.254 21.285L197.714 30.7451L199.133 29.5626Z" fill="#291B17"/>
<path d="M72.7907 130.903L70.9512 132.742L86.5036 148.295L88.3431 146.455L72.7907 130.903Z" fill="#FFB300"/>
</g>
<defs>
<linearGradient id="paint0_linear" x1="-0.00162758" y1="154.805" x2="128.582" y2="154.805" gradientUnits="userSpaceOnUse">
<stop stop-color="#611AC9"/>
<stop offset="0.9995" stop-color="#B228E9"/>
</linearGradient>
<clipPath id="clip0">
<rect width="219" height="219" fill="white"/>
</clipPath>
</defs>
</svg>
