<svg width="92" height="109" viewBox="0 0 92 109" fill="none" xmlns="http://www.w3.org/2000/svg">
<g clip-path="url(#clip0)">
<path d="M46 109C71.4051 109 92 88.219 92 62.5848C92 36.9506 71.4051 16.1699 46 16.1699C20.5949 16.1699 0 36.9506 0 62.5848C0 88.219 20.5949 109 46 109Z" fill="url(#paint0_linear)"/>
<path d="M91.9998 62.5848C91.9998 53.3019 89.3288 44.6178 84.5805 37.2812C84.5805 37.2812 81.9095 41.1741 82.503 43.5697C82.9482 46.115 85.9159 46.2648 85.6192 48.0615C85.3224 49.8582 83.245 47.6123 80.574 52.4035C77.903 57.1947 79.2385 63.7826 83.0966 64.3815C86.8063 64.9804 91.9998 62.5848 91.9998 62.5848Z" fill="url(#paint1_linear)"/>
<path d="M58.0195 17.8164C63.3615 19.3137 68.4066 21.7093 72.7098 24.8535C72.7098 24.8535 67.3679 23.9551 65.2905 25.7518C63.2131 27.5485 60.3937 31.8906 57.8711 25.7518C55.6453 19.7628 58.0195 17.8164 58.0195 17.8164Z" fill="url(#paint2_linear)"/>
<path d="M11.4258 32.0408C19.8838 22.3087 32.2 16.1699 46 16.1699C46 16.1699 42.8838 18.1163 48.8193 21.2606C54.7548 24.5545 52.0838 26.0518 50.7484 26.9501C49.5613 27.9982 47.3355 25.0037 46 22.9076C44.6645 20.9611 38.5806 17.8169 33.9806 19.4639C29.3806 21.1109 25.3742 22.3087 26.1161 23.9556C26.7097 25.4529 34.7226 22.4584 37.5419 22.6081C40.5096 22.7578 39.4709 24.5545 36.6516 26.8004C33.8322 28.8966 33.5355 31.5916 36.5032 33.2386C39.4709 34.8856 43.0322 35.0353 43.9226 34.137C44.8129 33.0889 42.4387 26.6507 48.0774 29.4955C53.7161 32.3403 58.3161 33.9872 53.7161 38.1795C49.1161 42.3718 43.9226 47.0133 43.7742 49.5587C43.6258 52.2537 45.4064 54.3499 44.3677 54.4996C43.329 54.6493 42.4387 53.4515 41.8451 52.5532C41.2516 51.6548 38.1355 51.3554 36.6516 51.9543C35.1677 52.5532 32.3484 54.799 33.9806 56.8952C35.6129 58.9913 37.6903 58.093 39.7677 58.9913C41.8451 60.0394 43.9226 63.7826 43.4774 64.6809C43.0322 65.5793 41.2516 64.3815 39.7677 61.5367C38.2838 58.5422 35.4645 60.4886 33.5355 60.0394C31.6064 59.5902 30.1226 59.1411 28.1935 55.6974C26.2645 52.2537 22.1097 51.2056 20.4774 49.2592C15.729 43.5696 16.0258 39.2276 14.9871 37.1315C14.0967 35.3348 11.4258 32.0408 11.4258 32.0408Z" fill="url(#paint3_linear)"/>
<path d="M50.4512 63.3335C50.4512 63.3335 55.348 63.7826 57.8706 66.0285C60.3932 68.1247 60.6899 69.023 64.3996 69.7716C68.1093 70.67 69.8899 72.7662 67.3674 76.9585C64.8448 81.1508 60.5415 87.7387 58.3157 89.6851C56.2383 91.6315 53.5673 93.2785 52.5286 96.5725C51.4899 99.8664 51.1932 101.813 53.419 103.16C53.419 103.16 52.2319 106.005 49.7093 102.262C47.0383 98.6686 49.2641 94.3266 49.7093 91.7813C50.1544 89.2359 51.4899 81.8994 50.748 79.953C49.8577 78.1563 46.148 76.9585 45.1093 73.2153C44.0706 69.6219 45.8512 62.1357 50.4512 63.3335Z" fill="url(#paint4_linear)"/>
<path opacity="0.3" d="M78.4965 29.7956C60.5416 11.6788 31.4578 11.6788 13.5029 29.7956C13.5029 29.7956 36.9481 10.7805 64.1029 32.4906L60.5416 37.5813L50.0061 35.6349C52.5287 34.2873 55.7932 32.4906 56.3868 32.1912C56.6836 32.0415 56.6836 31.2928 56.3868 31.2928C56.09 31.2928 55.6449 31.1431 55.1997 30.9934C54.9029 30.9934 54.7545 30.8437 54.4578 30.8437C54.161 30.8437 53.8642 30.8437 53.5674 30.8437C52.9739 30.8437 52.3803 31.1431 51.6384 31.4426C51.0449 31.742 49.2642 32.4906 47.3352 33.2393C46.4449 33.6884 45.4062 33.9879 44.5158 34.4371L39.3223 33.389L38.5803 33.2393C37.2449 32.9398 35.761 32.9398 34.5739 33.6884C34.2771 33.8382 34.1287 33.9879 33.832 34.1376C33.5352 34.2873 33.3868 34.4371 33.09 34.5868C32.9416 34.5868 32.9416 34.7365 32.9416 34.7365C32.7932 34.7365 32.6449 34.8862 32.6449 34.8862H32.4965C32.3481 34.8862 32.3481 35.036 32.1997 35.036C32.0513 35.036 32.0513 35.036 32.0513 35.1857H31.9029C31.9029 35.1857 31.7545 35.1857 31.7545 35.3354C31.3094 35.9343 31.161 36.084 31.161 36.2338C30.8642 36.9824 30.8642 37.8807 31.3094 38.3299C31.4578 38.6294 31.7545 38.7791 32.1997 38.9288L44.3674 41.1747C45.5545 42.2228 47.9287 44.4687 52.232 48.5112C53.5674 49.709 55.0513 50.4577 56.6836 50.7571L58.4642 51.0566C58.9094 51.0566 59.0578 50.6074 58.761 50.1582C58.761 50.0085 58.6126 50.0085 58.6126 49.8588C56.6836 47.7626 53.7158 44.4687 51.9352 42.5222L56.5352 43.4206C57.2771 43.5703 57.4255 43.5703 63.6578 42.672C64.2513 42.5222 64.5481 42.0731 64.5481 41.4741C65.5868 38.0305 66.1803 35.9343 66.6255 34.5868C67.6642 35.6349 68.8513 36.5332 69.89 37.731C99.419 67.5263 78.4965 95.3752 78.4965 95.3752C96.4513 77.2585 96.4513 47.9123 78.4965 29.7956Z" fill="black"/>
<path d="M84.5803 1.94643C84.5803 2.09615 84.5803 1.7967 83.9868 3.44368C83.3933 4.94093 82.3545 7.93544 80.1287 14.0742C70.0384 5.83928 84.2836 17.5179 73.8965 8.98352L81.0191 0.449176C81.1674 0.149725 81.6126 0 82.0578 0L83.5416 0.299451C84.2836 0.449176 84.7287 1.1978 84.5803 1.94643Z" fill="url(#paint5_linear)"/>
<path d="M83.0963 3.29395C82.6511 3.29395 82.2059 3.44367 82.0576 3.74312L76.1221 10.7802C76.4188 11.0797 75.5285 10.331 80.1285 14.0742C82.3543 7.93543 83.5414 4.94092 83.9866 3.44367L83.0963 3.29395Z" fill="url(#paint6_linear)"/>
<path d="M67.0706 1.79679C65.5867 2.3957 53.419 7.78581 51.9351 8.53443C50.4512 9.13333 48.819 9.43278 47.1867 9.13333L41.3996 8.23498C40.9544 8.08526 40.806 7.48635 41.2512 7.33663C41.2512 7.33663 47.4835 5.09075 52.677 3.29405C55.7931 2.24597 58.6125 1.19789 59.5028 0.898443C61.877 -0.149633 63.8061 9.178e-05 65.2899 0.149817C66.0319 0.299542 66.6254 0.449268 67.219 0.449268C67.6641 0.598993 67.6641 1.49734 67.0706 1.79679Z" fill="url(#paint7_linear)"/>
<path d="M65.2906 0.149314C62.3229 1.49684 59.8003 2.54492 59.0584 2.84437C57.5745 3.44327 55.9422 3.74272 54.31 3.44327L52.6777 3.14382C55.7939 2.09574 58.6132 1.04767 59.5035 0.748215C61.8777 -0.150136 63.8068 -0.000410773 65.2906 0.149314Z" fill="url(#paint8_linear)"/>
<path d="M81.6134 10.032L80.8714 11.9784L80.1295 13.9248C79.9811 14.6735 79.536 15.4221 78.6456 15.5718C68.7037 16.6199 68.5553 16.7696 67.2198 16.6199L28.7876 10.6309C28.194 10.4812 27.7489 10.3314 27.4521 9.88227C26.7101 9.13364 26.5618 7.93584 27.1553 7.03748C27.3037 6.73803 27.4521 6.58831 27.7489 6.43858C28.194 6.13913 28.194 6.13913 29.3811 5.68996C29.8263 5.54023 30.4198 5.09106 31.4585 4.64188C31.7553 4.49215 32.2005 4.1927 32.6456 4.04298C34.2779 2.9949 36.8005 2.9949 38.7295 3.29435L39.9166 3.44408L81.6134 10.032Z" fill="url(#paint9_linear)"/>
<path d="M81.6131 10.032L80.8711 11.9784C70.9292 13.0265 70.7808 13.1762 69.4453 13.0265L31.0131 7.03748C30.4195 6.88776 29.9744 6.73803 29.6776 6.28886C29.5292 6.13913 29.3808 5.98941 29.2324 5.68996C29.6776 5.54023 30.2711 5.09106 31.3098 4.64188C31.6066 4.49215 32.0518 4.1927 32.4969 4.04298C34.2776 2.9949 36.8002 2.9949 38.7292 3.29435L39.9163 3.44408L81.6131 10.032Z" fill="url(#paint10_linear)"/>
<path d="M52.6776 9.88202C52.6776 10.4809 52.3808 11.0798 51.7872 11.3793C51.4905 11.529 51.1937 11.6787 50.8969 11.6787C50.0066 11.6787 49.2646 10.9301 49.2646 10.0317C49.2646 9.13339 50.0066 8.38477 50.8969 8.38477C51.1937 8.38477 51.4905 8.53449 51.7872 8.68422C52.3808 8.68422 52.6776 9.13339 52.6776 9.88202Z" fill="#C2DFF6"/>
<path d="M59.7996 10.9299C59.7996 11.5288 59.5028 12.1277 58.9093 12.4271C58.6125 12.5768 58.3157 12.7266 58.019 12.7266C57.1287 12.7266 56.3867 11.9779 56.3867 11.0796C56.3867 10.1812 57.1287 9.43262 58.019 9.43262C58.3157 9.43262 58.6125 9.58234 58.9093 9.73207C59.3545 9.73207 59.7996 10.331 59.7996 10.9299Z" fill="#C2DFF6"/>
<path d="M66.7742 11.9787C66.7742 12.5776 66.4775 13.1765 65.8839 13.476C65.5871 13.6257 65.2904 13.7754 64.9936 13.7754C64.1033 13.7754 63.3613 13.0268 63.3613 12.1284C63.3613 11.2301 64.1033 10.4814 64.9936 10.4814C65.2904 10.4814 65.5871 10.6312 65.8839 10.7809C66.4775 10.7809 66.7742 11.3798 66.7742 11.9787Z" fill="#C2DFF6"/>
<path d="M52.6781 9.88202C52.6781 10.4809 52.3813 11.0798 51.7878 11.3793C51.3426 11.0798 50.8975 10.4809 50.8975 9.88202C50.8975 9.28312 51.1942 8.68422 51.7878 8.38477C52.3813 8.68422 52.6781 9.13339 52.6781 9.88202Z" fill="#D1E7F8"/>
<path d="M59.8002 10.9299C59.8002 11.5288 59.5034 12.1277 58.9099 12.4271C58.4647 12.1277 58.0195 11.5288 58.0195 10.9299C58.0195 10.331 58.3163 9.73207 58.9099 9.43262C59.355 9.73207 59.8002 10.331 59.8002 10.9299Z" fill="#D1E7F8"/>
<path d="M66.7748 11.9777C66.7748 12.5766 66.478 13.1755 65.8845 13.475C65.4393 13.1755 64.9941 12.5766 64.9941 11.9777C64.9941 11.3788 65.2909 10.7799 65.8845 10.4805C66.478 10.7799 66.7748 11.3788 66.7748 11.9777Z" fill="#D1E7F8"/>
<path d="M37.5423 7.03689C37.5423 7.18662 37.5423 7.33634 37.3939 7.63579C37.0971 8.38442 36.3552 8.8336 35.6132 8.68387L26.8584 7.18662C27.0068 6.88717 27.1552 6.73744 27.4519 6.58772C28.0455 6.13854 27.8971 6.43799 31.1616 4.79102L36.2068 5.68937C37.0971 5.68937 37.5423 6.28827 37.5423 7.03689Z" fill="#D1E7F8"/>
<path d="M37.5423 7.03689C37.5423 7.18662 37.5423 7.33634 37.3939 7.63579C37.0971 8.38442 36.3552 8.8336 35.6132 8.68387L31.1616 7.93525L26.8584 7.18662C27.0068 6.88717 27.1552 6.73744 27.4519 6.58772C28.0455 6.13854 27.8971 6.43799 31.1616 4.79102L35.91 5.68937H36.2068C37.0971 5.68937 37.5423 6.28827 37.5423 7.03689Z" fill="#D1E7F8"/>
<path d="M36.0575 5.53964L31.4575 7.93525L27.1543 7.18662C27.3027 6.88717 27.4511 6.73744 27.7478 6.58772C28.3414 6.13854 28.193 6.43799 31.4575 4.79102L36.0575 5.53964Z" fill="#B3D8F4"/>
<path d="M70.9285 25.4528C70.7801 25.3031 70.6317 25.3031 70.6317 25.1534C66.922 21.8594 60.8382 16.3196 58.3156 14.2235C56.8317 13.0256 54.7543 12.5765 52.9736 12.277L49.8575 11.5284L46.2962 10.4803C45.7027 10.3306 45.4059 11.6781 45.8511 11.9776C45.9994 12.1273 47.4833 13.1754 60.5414 23.207C62.6188 24.8539 64.993 25.7523 67.664 26.0517L70.4833 26.3512C71.0769 26.6506 71.3736 25.902 70.9285 25.4528Z" fill="url(#paint11_linear)"/>
<path d="M58.3165 14.074C56.8326 12.8762 54.7552 12.427 52.9745 12.1275L49.8584 11.3789C50.7487 12.1275 54.0132 14.5231 64.1036 22.3089C66.0326 23.8061 68.11 24.7045 70.4842 25.1536C66.9229 21.8597 60.6907 16.3198 58.3165 14.074Z" fill="url(#paint12_linear)"/>
</g>
<defs>
<linearGradient id="paint0_linear" x1="0" y1="62.633" x2="91.939" y2="62.633" gradientUnits="userSpaceOnUse">
<stop stop-color="#12206A"/>
<stop offset="0.9995" stop-color="#6C2299"/>
</linearGradient>
<linearGradient id="paint1_linear" x1="1.42268" y1="50.9618" x2="91.445" y2="50.9618" gradientUnits="userSpaceOnUse">
<stop offset="0.000460643" stop-color="#0480A0"/>
<stop offset="0.9995" stop-color="#ABFFB0"/>
</linearGradient>
<linearGradient id="paint2_linear" x1="1.05208" y1="23.4486" x2="89.4951" y2="23.4486" gradientUnits="userSpaceOnUse">
<stop offset="0.000460643" stop-color="#0480A0"/>
<stop offset="0.9995" stop-color="#ABFFB0"/>
</linearGradient>
<linearGradient id="paint3_linear" x1="1.42286" y1="40.6596" x2="91.4452" y2="40.6596" gradientUnits="userSpaceOnUse">
<stop offset="0.000460643" stop-color="#0480A0"/>
<stop offset="0.9995" stop-color="#ABFFB0"/>
</linearGradient>
<linearGradient id="paint4_linear" x1="1.42246" y1="83.7195" x2="91.4448" y2="83.7195" gradientUnits="userSpaceOnUse">
<stop offset="0.000460643" stop-color="#0480A0"/>
<stop offset="0.9995" stop-color="#ABFFB0"/>
</linearGradient>
<linearGradient id="paint5_linear" x1="79.2165" y1="17.571" x2="79.2165" y2="-1.04269" gradientUnits="userSpaceOnUse">
<stop offset="0.00416421" stop-color="white"/>
<stop offset="0.9995" stop-color="#E7EFF2"/>
</linearGradient>
<linearGradient id="paint6_linear" x1="80.0073" y1="3.06636" x2="80.0073" y2="10.6514" gradientUnits="userSpaceOnUse">
<stop offset="0.00416421" stop-color="white"/>
<stop offset="0.9995" stop-color="#E7EFF2"/>
</linearGradient>
<linearGradient id="paint7_linear" x1="46.1029" y1="8.0866" x2="75.1984" y2="-3.06067" gradientUnits="userSpaceOnUse">
<stop offset="0.00416421" stop-color="white"/>
<stop offset="0.9995" stop-color="#E7EFF2"/>
</linearGradient>
<linearGradient id="paint8_linear" x1="63.9801" y1="-0.179931" x2="54.6831" y2="3.50564" gradientUnits="userSpaceOnUse">
<stop offset="0.00416421" stop-color="white"/>
<stop offset="0.9995" stop-color="#E7EFF2"/>
</linearGradient>
<linearGradient id="paint9_linear" x1="54.1083" y1="10.3034" x2="54.1083" y2="15.6161" gradientUnits="userSpaceOnUse">
<stop offset="0.00416421" stop-color="white"/>
<stop offset="0.9995" stop-color="#E7EFF2"/>
</linearGradient>
<linearGradient id="paint10_linear" x1="29.1876" y1="8.07478" x2="81.5463" y2="8.07478" gradientUnits="userSpaceOnUse">
<stop offset="0.00416421" stop-color="white"/>
<stop offset="0.9995" stop-color="#E7EFF2"/>
</linearGradient>
<linearGradient id="paint11_linear" x1="68.0112" y1="18.4659" x2="60.4847" y2="18.4659" gradientUnits="userSpaceOnUse">
<stop offset="0.00416421" stop-color="white"/>
<stop offset="0.9995" stop-color="#E7EFF2"/>
</linearGradient>
<linearGradient id="paint12_linear" x1="49.9243" y1="18.2185" x2="70.5872" y2="18.2185" gradientUnits="userSpaceOnUse">
<stop offset="0.00416421" stop-color="white"/>
<stop offset="0.9995" stop-color="#E7EFF2"/>
</linearGradient>
<clipPath id="clip0">
<rect width="92" height="109" fill="white"/>
</clipPath>
</defs>
</svg>
