<svg width="107" height="99" viewBox="0 0 107 99" fill="none" xmlns="http://www.w3.org/2000/svg">
<g clip-path="url(#clip0)">
<path d="M65.4466 98.9997H9.86893C4.46699 98.9997 0 94.5186 0 89.0997V13.026C0 7.60703 4.46699 3.12598 9.86893 3.12598H65.4466C70.9524 3.12598 75.3155 7.60703 75.3155 13.026V89.0997C75.3155 94.5186 70.8485 98.9997 65.4466 98.9997Z" fill="#DCDCDC"/>
<path d="M9.86893 0H65.4466C70.9524 0 75.3155 4.48105 75.3155 9.9V85.9737C75.3155 91.4968 70.8485 95.8737 65.4466 95.8737H9.86893C4.46699 95.8737 0 91.3926 0 85.9737V9.9C0 4.48105 4.46699 0 9.86893 0Z" fill="url(#paint0_linear)"/>
<path d="M11.2197 19.6963H64.0964" stroke="black" stroke-opacity="0.25" stroke-width="5" stroke-miterlimit="10"/>
<path d="M11.2197 31.4717H64.0964" stroke="black" stroke-opacity="0.25" stroke-width="5" stroke-miterlimit="10"/>
<path d="M11.2197 43.3516H64.0964" stroke="black" stroke-opacity="0.25" stroke-width="5" stroke-miterlimit="10"/>
<path d="M11.2197 55.127H64.0964" stroke="black" stroke-opacity="0.25" stroke-width="5" stroke-miterlimit="10"/>
<path d="M11.2197 66.9033H64.0964" stroke="black" stroke-opacity="0.25" stroke-width="5" stroke-miterlimit="10"/>
<path d="M11.2197 78.6787H64.0964" stroke="black" stroke-opacity="0.25" stroke-width="5" stroke-miterlimit="10"/>
<path d="M95.3654 46.8949C101.791 46.8949 107 41.6694 107 35.2233C107 28.7773 101.791 23.5518 95.3654 23.5518C88.9396 23.5518 83.7305 28.7773 83.7305 35.2233C83.7305 41.6694 88.9396 46.8949 95.3654 46.8949Z" fill="url(#paint1_linear)"/>
<path d="M102.221 46.8949C102.014 46.8949 101.806 46.7907 101.598 46.6865C101.286 46.3738 101.286 45.8528 101.598 45.4359C101.91 45.1233 102.014 43.977 100.975 42.1012C99.9359 40.017 97.9621 37.6202 95.5728 35.1191C93.1835 32.7223 90.6903 30.7423 88.5087 29.7002C86.431 28.658 85.3922 28.8665 85.1844 29.0749C84.8728 29.3875 84.3534 29.3875 83.9378 29.0749C83.6262 28.7623 83.6262 28.2412 83.9378 27.8244C85.9116 25.8444 91.3136 28.4496 96.7155 33.8686C102.533 39.6002 104.922 44.6023 102.845 46.6865C102.637 46.7907 102.429 46.8949 102.221 46.8949Z" fill="url(#paint2_linear)"/>
<path d="M99.9359 48.4582C97.3388 48.4582 93.1835 45.9571 88.9242 41.7887C83.2106 36.0571 80.8213 31.055 82.899 28.9708C83.2107 28.6582 83.7301 28.6582 84.1456 28.9708C84.4573 29.2834 84.4573 29.8045 84.1456 30.2213C83.2107 31.1592 84.8728 35.2234 90.1708 40.6424C95.5728 46.0613 99.7281 47.4161 100.559 46.6866C100.871 46.374 101.39 46.374 101.806 46.6866C102.117 46.9992 102.117 47.5203 101.806 47.9371C101.286 48.2497 100.663 48.4582 99.9359 48.4582Z" fill="url(#paint3_linear)"/>
<path d="M98.7933 49.5002C96.1962 49.5002 92.0409 46.9991 87.7817 42.8307C82.0681 37.0991 79.6788 32.097 81.7564 30.0128C82.0681 29.7002 82.5875 29.7002 83.003 30.0128C83.3147 30.3254 83.3147 30.8465 83.003 31.2633C82.0681 32.2012 83.7302 36.2654 89.0283 41.6844C94.4302 47.1033 98.5855 48.4581 99.4166 47.7286C99.7283 47.416 100.248 47.416 100.663 47.7286C100.975 48.0412 100.975 48.5623 100.663 48.9791C100.144 49.2917 99.5205 49.5002 98.7933 49.5002Z" fill="url(#paint4_linear)"/>
<path d="M43.4233 72.7388L39.8913 88.0578C39.6835 88.8915 39.9951 89.7252 40.5146 90.2462C41.034 90.7673 41.865 91.0799 42.6961 90.8715L57.967 87.3283C60.1485 86.8073 60.3563 86.7031 61.8107 85.3483L64.3039 74.0936L59.6291 71.0715L57.7592 67.5283L45.501 68.8831C44.0466 70.342 43.9427 70.5504 43.4233 72.7388Z" fill="url(#paint5_linear)"/>
<path d="M55.5773 75.1356C60.5637 80.1377 62.0181 83.8893 61.187 85.9735L100.559 46.4777C101.39 44.3935 99.9356 40.6419 94.9492 35.6398C89.9628 30.6377 86.2229 29.283 84.1453 30.1167L44.7734 69.6124C46.8511 68.7788 50.5909 70.1335 55.5773 75.1356Z" fill="url(#paint6_linear)"/>
<path d="M39.8913 88.0581C39.6835 88.8918 39.9951 89.7255 40.5146 90.2465C41.034 90.7676 41.865 91.0802 42.6961 90.8718L46.1243 90.0381C46.2281 89.5171 45.6048 88.3708 43.9427 86.7034C42.2806 85.036 41.2417 84.4107 40.6184 84.515L39.8913 88.0581Z" fill="url(#paint7_linear)"/>
<path d="M101.079 48.0411C100.871 48.0411 100.664 47.9369 100.456 47.8327C100.144 47.52 100.144 46.999 100.456 46.5821C101.391 45.6443 99.7286 41.58 94.4305 36.1611C89.0286 30.7421 84.8732 29.3874 84.0422 30.1169C83.7305 30.4295 83.2111 30.4295 82.7956 30.1169C82.38 29.8042 82.4839 29.2832 82.7956 28.8664C84.7693 26.8864 90.1713 29.4916 95.5732 34.9106C101.287 40.6421 103.676 45.6442 101.598 47.7285C101.495 47.9369 101.287 48.0411 101.079 48.0411Z" fill="url(#paint8_linear)"/>
<path d="M100.04 49.1879C99.8319 49.1879 99.6242 49.0836 99.4164 48.9794C99.1047 48.6668 99.1047 48.1458 99.4164 47.7289C99.728 47.4163 99.8319 46.27 98.7931 44.3942C97.7543 42.31 95.7805 39.9131 93.3912 37.4121C87.9892 31.9931 83.8339 30.6384 83.0028 31.3679C82.6912 31.6805 82.1717 31.6805 81.7562 31.3679C81.4445 31.0552 81.4445 30.5342 81.7562 30.1173C83.73 28.1373 89.1319 30.7426 94.5339 36.1615C97.131 38.7668 99.2086 41.3721 100.247 43.6647C101.806 46.791 101.286 48.25 100.559 49.0836C100.455 49.0836 100.247 49.1879 100.04 49.1879Z" fill="url(#paint9_linear)"/>
</g>
<defs>
<linearGradient id="paint0_linear" x1="37.6578" y1="94.8316" x2="37.6578" y2="1.53992" gradientUnits="userSpaceOnUse">
<stop offset="0.00416421" stop-color="white"/>
<stop offset="0.9995" stop-color="#E7EFF2"/>
</linearGradient>
<linearGradient id="paint1_linear" x1="102.925" y1="42.8096" x2="87.1001" y2="27.0342" gradientUnits="userSpaceOnUse">
<stop offset="0.3221" stop-color="#FF6565"/>
<stop offset="0.9986" stop-color="#FF94A1"/>
</linearGradient>
<linearGradient id="paint2_linear" x1="92.8239" y1="37.8381" x2="96.8245" y2="33.85" gradientUnits="userSpaceOnUse">
<stop offset="0.3221" stop-color="#FFAC00"/>
<stop offset="0.9968" stop-color="#FFF59A"/>
</linearGradient>
<linearGradient id="paint3_linear" x1="92.9053" y1="37.7534" x2="88.9049" y2="41.7413" gradientUnits="userSpaceOnUse">
<stop offset="0.3221" stop-color="#FFAC00"/>
<stop offset="0.9968" stop-color="#FFF59A"/>
</linearGradient>
<linearGradient id="paint4_linear" x1="91.8268" y1="38.8351" x2="87.8262" y2="42.8231" gradientUnits="userSpaceOnUse">
<stop offset="0.3221" stop-color="#FFAC00"/>
<stop offset="0.9968" stop-color="#FFF59A"/>
</linearGradient>
<linearGradient id="paint5_linear" x1="58.706" y1="88.5073" x2="42.262" y2="72.115" gradientUnits="userSpaceOnUse">
<stop offset="0.00340876" stop-color="#FFD78E"/>
<stop offset="0.6441" stop-color="#FFF0B9"/>
<stop offset="0.9986" stop-color="#FFFBCC"/>
</linearGradient>
<linearGradient id="paint6_linear" x1="77.3417" y1="83.166" x2="68.4336" y2="32.8037" gradientUnits="userSpaceOnUse">
<stop stop-color="#611AC9"/>
<stop offset="0.9995" stop-color="#B228E9"/>
</linearGradient>
<linearGradient id="paint7_linear" x1="44.9823" y1="91.3242" x2="39.4886" y2="85.8478" gradientUnits="userSpaceOnUse">
<stop offset="0.00340876" stop-color="#4A4A4A"/>
<stop offset="0.6115" stop-color="#656F6F"/>
<stop offset="0.9986" stop-color="#728282"/>
</linearGradient>
<linearGradient id="paint8_linear" x1="91.6924" y1="38.9737" x2="95.693" y2="34.9857" gradientUnits="userSpaceOnUse">
<stop offset="0.3221" stop-color="#FFAC00"/>
<stop offset="0.9968" stop-color="#FFF59A"/>
</linearGradient>
<linearGradient id="paint9_linear" x1="90.613" y1="40.0562" x2="94.6137" y2="36.0681" gradientUnits="userSpaceOnUse">
<stop offset="0.3221" stop-color="#FFAC00"/>
<stop offset="0.9968" stop-color="#FFF59A"/>
</linearGradient>
<clipPath id="clip0">
<rect width="107" height="99" fill="white"/>
</clipPath>
</defs>
</svg>
