<svg width="16" height="16" viewBox="0 0 16 16" fill="none" xmlns="http://www.w3.org/2000/svg">
<g id="icon/maps/hotel_24px">
<path id="icon/maps/hotel_24px_2" fill-rule="evenodd" clip-rule="evenodd" d="M12.667 4.33333H7.33366V9.66667H2.00033V3H0.666992V13H2.00033V11H14.0003V13H15.3337V7C15.3337 5.52667 14.1403 4.33333 12.667 4.33333ZM6.66699 7C6.66699 8.10667 5.77366 9 4.66699 9C3.56033 9 2.66699 8.10667 2.66699 7C2.66699 5.89333 3.56033 5 4.66699 5C5.77366 5 6.66699 5.89333 6.66699 7ZM5.33366 7C5.33366 6.63333 5.03366 6.33333 4.66699 6.33333C4.30033 6.33333 4.00033 6.63333 4.00033 7C4.00033 7.36667 4.30033 7.66667 4.66699 7.66667C5.03366 7.66667 5.33366 7.36667 5.33366 7ZM8.66699 9.66667H14.0003V7C14.0003 6.26667 13.4003 5.66667 12.667 5.66667H8.66699V9.66667Z" fill="white"/>
</g>
</svg>
