<svg width="36" height="36" viewBox="0 0 36 36" fill="none" xmlns="http://www.w3.org/2000/svg">
<path d="M17.9995 21.6034C19.9854 21.6034 21.6044 19.9873 21.6044 18C21.6044 17.2155 21.3478 16.4911 20.9229 15.8995C20.2682 14.9917 19.2038 14.3965 18.0017 14.3965C16.7988 14.3965 15.7352 14.991 15.079 15.8988C14.6527 16.4904 14.3982 17.2147 14.3975 17.9992C14.3953 19.9866 16.0129 21.6034 17.9995 21.6034Z" fill="#7735E5"/>
<path d="M25.8683 13.5921V10.5716V10.1221L25.4166 10.1235L22.3975 10.1329L22.4091 13.6037L25.8683 13.5921Z" fill="#7735E5"/>
<path d="M18 0C8.07484 0 0 8.07484 0 18C0 27.9244 8.07484 36 18 36C27.9244 36 36 27.9244 36 18C36 8.07484 27.9259 0 18 0ZM28.2369 15.8995V24.2811C28.2369 26.4642 26.462 28.2384 24.2804 28.2384H11.7196C9.53726 28.2384 7.76307 26.4642 7.76307 24.2811V15.8995V11.7204C7.76307 9.53798 9.53726 7.7638 11.7196 7.7638H24.2796C26.462 7.7638 28.2369 9.53798 28.2369 11.7204V15.8995Z" fill="#7735E5"/>
<path d="M23.5994 17.9999C23.5994 21.0864 21.0879 23.5994 17.9999 23.5994C14.9119 23.5994 12.4011 21.0864 12.4011 17.9999C12.4011 17.2574 12.549 16.5476 12.8129 15.8994H9.75684V24.2809C9.75684 25.3642 10.6363 26.2415 11.7188 26.2415H24.2788C25.3598 26.2415 26.2408 25.3642 26.2408 24.2809V15.8994H23.1832C23.4493 16.5476 23.5994 17.2574 23.5994 17.9999Z" fill="#7735E5"/>
</svg>
