<svg width="40" height="40" viewBox="0 0 40 40" fill="none" xmlns="http://www.w3.org/2000/svg">
<circle cx="20" cy="20" r="20" fill="white" fill-opacity="0.5"/>
<path fill-rule="evenodd" clip-rule="evenodd" d="M20 0C8.9543 0 0 8.9543 0 20C0 31.0457 8.9543 40 20 40C31.0457 40 40 31.0457 40 20C40 8.9543 31.0457 0 20 0ZM15.6027 9.39771C16.7405 9.34593 17.1041 9.33326 20.001 9.33326H19.9977C22.8955 9.33326 23.2577 9.34593 24.3955 9.39771C25.5311 9.44971 26.3066 9.62949 26.9866 9.89327C27.6889 10.1655 28.2822 10.5299 28.8756 11.1233C29.4689 11.7162 29.8333 12.3113 30.1067 13.0129C30.3689 13.6911 30.5489 14.4662 30.6022 15.6018C30.6533 16.7396 30.6667 17.1031 30.6667 20C30.6667 22.897 30.6533 23.2596 30.6022 24.3974C30.5489 25.5325 30.3689 26.3079 30.1067 26.9863C29.8333 27.6877 29.4689 28.2828 28.8756 28.8757C28.2829 29.469 27.6887 29.8344 26.9873 30.1068C26.3086 30.3706 25.5326 30.5504 24.3971 30.6024C23.2593 30.6541 22.8968 30.6668 19.9997 30.6668C17.103 30.6668 16.7396 30.6541 15.6019 30.6024C14.4665 30.5504 13.6912 30.3706 13.0125 30.1068C12.3114 29.8344 11.7163 29.469 11.1236 28.8757C10.5305 28.2828 10.166 27.6877 9.89336 26.9861C9.6298 26.3079 9.45002 25.5328 9.3978 24.3972C9.34624 23.2594 9.33335 22.897 9.33335 20C9.33335 17.1031 9.34668 16.7393 9.39757 15.6015C9.44869 14.4664 9.62869 13.6911 9.89314 13.0126C10.1665 12.3113 10.5309 11.7162 11.1243 11.1233C11.7172 10.5302 12.3123 10.1657 13.0138 9.89327C13.6921 9.62949 14.4672 9.44971 15.6027 9.39771Z" fill="#121212"/>
<path fill-rule="evenodd" clip-rule="evenodd" d="M19.044 11.2556C19.2298 11.2553 19.4297 11.2554 19.6454 11.2555L20.0009 11.2556C22.8489 11.2556 23.1865 11.2658 24.3111 11.3169C25.3512 11.3645 25.9156 11.5383 26.2916 11.6843C26.7894 11.8776 27.1443 12.1087 27.5174 12.4821C27.8907 12.8554 28.1219 13.211 28.3156 13.7087C28.4616 14.0843 28.6356 14.6487 28.683 15.6888C28.7341 16.8132 28.7452 17.151 28.7452 19.9977C28.7452 22.8444 28.7341 23.1822 28.683 24.3066C28.6354 25.3466 28.4616 25.9111 28.3156 26.2866C28.1223 26.7844 27.8907 27.1389 27.5174 27.512C27.1441 27.8853 26.7896 28.1164 26.2916 28.3098C25.9161 28.4564 25.3512 28.6298 24.3111 28.6773C23.1867 28.7284 22.8489 28.7396 20.0009 28.7396C17.1526 28.7396 16.8151 28.7284 15.6906 28.6773C14.6506 28.6293 14.0862 28.4556 13.7099 28.3096C13.2121 28.1162 12.8566 27.8851 12.4832 27.5118C12.1099 27.1384 11.8788 26.7838 11.685 26.2858C11.539 25.9102 11.365 25.3457 11.3177 24.3057C11.2666 23.1813 11.2563 22.8435 11.2563 19.995C11.2563 17.1465 11.2666 16.8105 11.3177 15.6861C11.3652 14.6461 11.539 14.0816 11.685 13.7056C11.8784 13.2078 12.1099 12.8523 12.4832 12.4789C12.8566 12.1056 13.2121 11.8745 13.7099 11.6807C14.0859 11.534 14.6506 11.3607 15.6906 11.3129C16.6746 11.2685 17.056 11.2552 19.044 11.2529V11.2556ZM25.6947 13.0268C24.988 13.0268 24.4147 13.5995 24.4147 14.3064C24.4147 15.013 24.988 15.5864 25.6947 15.5864C26.4014 15.5864 26.9747 15.013 26.9747 14.3064C26.9747 13.5997 26.4014 13.0263 25.6947 13.0263V13.0268ZM14.5231 20.0003C14.5231 16.9752 16.9756 14.5226 20.0007 14.5225C23.0258 14.5225 25.4778 16.9752 25.4778 20.0003C25.4778 23.0255 23.026 25.477 20.0009 25.477C16.9758 25.477 14.5231 23.0255 14.5231 20.0003Z" fill="#121212"/>
<path d="M20.0009 16.4443C21.9645 16.4443 23.5565 18.0361 23.5565 19.9999C23.5565 21.9635 21.9645 23.5555 20.0009 23.5555C18.0371 23.5555 16.4453 21.9635 16.4453 19.9999C16.4453 18.0361 18.0371 16.4443 20.0009 16.4443Z" fill="#121212"/>
</svg>
