<svg width="12" height="12" viewBox="0 0 12 12" fill="none" xmlns="http://www.w3.org/2000/svg">
<g clip-path="url(#clip0)">
<path d="M7.6694 5.4511C7.19851 5.19086 6.69787 4.99259 6.20219 4.78689C5.9147 4.66792 5.6396 4.52913 5.39672 4.33582C4.91839 3.95414 5.01009 3.33455 5.5702 3.08918C5.72882 3.01979 5.89487 2.99748 6.0634 2.98757C6.71274 2.95287 7.32986 3.07184 7.91724 3.35437C8.2097 3.49564 8.30635 3.45103 8.40549 3.14619C8.50958 2.824 8.59633 2.49685 8.69298 2.17218C8.75742 1.95408 8.67811 1.81033 8.4724 1.71863C8.09569 1.55258 7.70906 1.43361 7.3026 1.36918C6.77223 1.28739 6.77223 1.28491 6.76975 0.752056C6.76727 0.00110152 6.76727 0.00110151 6.01384 0.00110151C5.90479 0.00110151 5.79574 -0.00137689 5.68669 0.00110151C5.33476 0.0110151 5.27527 0.072975 5.26536 0.427386C5.2604 0.586003 5.26536 0.744621 5.26288 0.905716C5.2604 1.37661 5.25793 1.36918 4.80686 1.53275C3.71636 1.92929 3.04224 2.67281 2.97037 3.86244C2.90593 4.91576 3.45613 5.62706 4.32109 6.14505C4.85395 6.46476 5.4438 6.65312 6.00888 6.90344C6.22946 7.00009 6.44012 7.11162 6.62352 7.26528C7.16629 7.71387 7.06715 8.45987 6.42277 8.74241C6.07827 8.89359 5.71395 8.93077 5.33971 8.88368C4.76225 8.8118 4.20956 8.66062 3.6891 8.39048C3.38426 8.23186 3.29504 8.27399 3.19094 8.60362C3.10172 8.88863 3.02241 9.17613 2.9431 9.46362C2.83653 9.85025 2.87619 9.94195 3.24547 10.1229C3.71636 10.3509 4.21948 10.4674 4.73251 10.5492C5.13401 10.6136 5.1464 10.6309 5.15135 11.0473C5.15383 11.2357 5.15383 11.4265 5.15631 11.6149C5.15879 11.8528 5.2728 11.9916 5.51816 11.9965C5.79574 12.0015 6.0758 12.0015 6.35338 11.9941C6.58139 11.9891 6.69787 11.8652 6.69787 11.6347C6.69787 11.3769 6.71027 11.1167 6.70035 10.859C6.68796 10.5962 6.80197 10.4624 7.05476 10.393C7.63719 10.2344 8.13286 9.92212 8.51454 9.45619C9.57529 8.16742 9.17131 6.28136 7.6694 5.4511Z" fill="white"/>
</g>
<defs>
<clipPath id="clip0">
<rect width="12" height="12" fill="white"/>
</clipPath>
</defs>
</svg>
