<svg width="186" height="186" viewBox="0 0 186 186" fill="none" xmlns="http://www.w3.org/2000/svg">
<circle cx="93" cy="93" r="93" fill="#121212"/>
<g filter="url(#filter0_f)">
<path d="M95.0664 132.02C96.697 138.631 91.4291 137.758 89.1715 141.375C86.9139 144.993 84.6562 146.988 89.1715 147.612C93.6868 148.236 93.8122 149.358 96.5715 151.479C99.3309 153.599 96.1953 155.72 98.8292 156.842C101.463 157.965 100.836 152.851 104.473 149.234C108.111 145.616 106.229 143.371 109.239 140.627C112.25 137.883 105.602 135.388 114.382 129.401C123.287 123.414 119.9 123.538 125.168 123.538C130.311 123.538 129.307 118.923 132.819 113.934C136.331 108.945 131.063 102.458 134.45 95.7229C137.836 88.9873 137.711 92.3551 141.097 87.241C144.484 82.1269 145.111 83.0001 144.985 79.8817C144.86 76.7634 144.358 74.2687 140.721 73.3956C137.084 72.5224 135.328 68.531 130.562 67.2836C125.795 66.0363 122.284 66.9094 118.772 65.2879C115.26 63.6664 104.473 59.5502 102.843 57.9286C101.212 56.3071 103.094 56.5566 101.589 53.3135C100.083 50.0704 101.087 48.1994 98.9546 48.0747C96.8224 47.9499 96.9478 53.1887 93.4359 53.6877C89.924 54.1866 91.3037 51.6919 89.0461 51.9414C86.7884 52.1909 87.541 53.3135 84.4054 54.1866C81.2698 55.0597 78.2596 56.5566 77.1308 54.3113C76.0019 52.0661 75.3748 52.8145 77.0053 48.9478C78.6359 45.0811 75.2494 44.0832 72.8663 45.8295C70.4833 47.5757 64.9646 44.8316 63.4595 48.3241C61.9544 51.8167 64.8392 53.1887 63.9612 55.0598C63.0832 56.9308 58.1917 57.4297 56.812 57.4297C55.4324 57.4297 56.6866 54.3113 52.2967 54.6855C47.9069 55.0598 47.1543 58.9265 48.7849 60.7975C50.4154 62.6685 51.6696 63.5416 50.0391 67.5331C48.4086 71.5246 50.29 71.1504 46.2764 71.2751C42.2628 71.3998 39.378 72.5224 38.1238 79.757C36.8696 86.9915 45.5238 84.1227 47.0289 87.7399C48.534 91.3572 55.0561 88.1141 57.1883 86.9915C59.3205 85.8689 62.707 85.37 62.707 88.1141C62.707 90.8583 63.2087 92.2303 66.3443 94.1013C69.4799 95.9723 75.6257 96.596 75.7511 98.8412C75.8765 101.086 76.2528 104.08 79.1376 104.828C82.0223 105.452 81.3952 105.577 82.7749 108.071C84.1545 110.566 84.4054 111.315 83.5274 113.435C82.6494 115.555 82.524 120.171 84.7816 121.917C87.0393 123.663 87.6664 120.295 89.924 122.915C92.1817 125.534 91.0529 126.407 92.3071 128.528C93.4359 130.648 94.5647 130.025 95.0664 132.02Z" fill="url(#paint0_linear)" fill-opacity="0.3"/>
</g>
<g clip-path="url(#clip0)">
<path d="M94.9727 127.074C96.6666 133.944 91.1939 133.037 88.8485 136.796C86.503 140.555 84.1576 142.629 88.8485 143.277C93.5394 143.926 93.6697 145.092 96.5363 147.296C99.403 149.5 96.1454 151.703 98.8818 152.87C101.618 154.037 100.967 148.722 104.745 144.963C108.524 141.203 106.57 138.87 109.697 136.018C112.824 133.166 105.918 130.574 115.039 124.352C124.291 118.129 120.773 118.259 126.245 118.259C131.588 118.259 130.545 113.463 134.194 108.277C137.842 103.092 132.37 96.3516 135.888 89.3516C139.406 82.3516 139.276 85.8516 142.794 80.5368C146.312 75.2219 146.964 76.1293 146.833 72.8886C146.703 69.6479 146.182 67.0553 142.403 66.1479C138.624 65.2405 136.8 61.0923 131.848 59.796C126.897 58.4997 123.248 59.4071 119.6 57.7219C115.951 56.0368 104.745 51.759 103.051 50.0738C101.358 48.3886 103.312 48.6479 101.748 45.2775C100.185 41.9071 101.227 39.9627 99.0121 39.8331C96.797 39.7034 96.9273 45.1479 93.2788 45.6664C89.6303 46.1849 91.0636 43.5923 88.7182 43.8516C86.3727 44.1108 87.1545 45.2775 83.897 46.1849C80.6394 47.0923 77.5121 48.6479 76.3394 46.3145C75.1667 43.9812 74.5151 44.759 76.2091 40.7405C77.903 36.7219 74.3848 35.6849 71.9091 37.4997C69.4333 39.3145 63.7 36.4627 62.1363 40.0923C60.5727 43.7219 63.5697 45.1479 62.6576 47.0923C61.7454 49.0368 56.6636 49.5553 55.2303 49.5553C53.797 49.5553 55.1 46.3145 50.5394 46.7034C45.9788 47.0923 45.197 51.1108 46.8909 53.0553C48.5848 54.9997 49.8879 55.9071 48.1939 60.0553C46.5 64.2034 48.4545 63.8145 44.2848 63.9442C40.1151 64.0738 37.1182 65.2405 35.8151 72.759C34.5121 80.2775 43.503 77.296 45.0666 81.0553C46.6303 84.8145 53.406 81.4442 55.6212 80.2775C57.8363 79.1108 61.3545 78.5923 61.3545 81.4442C61.3545 84.296 61.8757 85.7219 65.1333 87.6664C68.3909 89.6108 74.7757 90.259 74.906 92.5923C75.0363 94.9256 75.4273 98.0368 78.4242 98.8145C81.4212 99.4627 80.7697 99.5923 82.203 102.185C83.6363 104.777 83.897 105.555 82.9848 107.759C82.0727 109.963 81.9424 114.759 84.2879 116.574C86.6333 118.389 87.2848 114.889 89.6303 117.611C91.9757 120.333 90.803 121.24 92.106 123.444C93.2788 125.648 94.4515 125 94.9727 127.074Z" fill="url(#paint1_linear)"/>
<path d="M100.576 118.649C105.788 149.371 131.588 130.963 142.534 124.741C149.049 120.982 152.827 114.111 153.218 106.723C154.13 92.8522 143.706 81.4448 131.327 76.7782C121.294 73.0189 110.218 73.2782 99.6638 75.3522C89.1093 77.4263 79.0759 81.1856 69.0426 84.6856C66.3062 85.593 63.4396 86.5004 60.5729 86.5004C57.7062 86.5004 54.579 85.2041 53.1456 82.7411C51.582 80.2782 51.4517 73.9263 53.1456 69.7782C59.9214 54.093 91.9759 62.0004 111.521 62.13C116.473 62.13 121.685 62.3893 126.376 60.5745C131.067 58.7596 134.976 53.9633 134.064 49.0374C132.63 42.8152 125.724 38.9263 119.34 39.7041C112.955 40.4819 107.482 44.7596 104.224 50.2041C96.6668 62.0004 99.4032 79.3707 110.218 88.5745C112.824 90.7782 115.952 92.593 118.427 95.0559C120.121 96.6115 121.555 98.6856 122.337 100.76C123.118 102.963 122.076 105.297 119.991 106.334C117.124 107.63 113.476 107.5 110.609 106.074C106.57 104.13 103.703 100.63 100.837 97.13C97.9699 93.63 95.1032 90.13 90.9335 88.3152C82.7244 84.6856 73.3426 89.4819 65.785 94.4078C58.2274 99.3337 49.7577 105.037 41.0274 102.963C31.9062 100.76 26.5638 90.9078 25.782 81.5745C24.6093 67.7041 31.6456 53.3152 44.0244 46.7041C56.4032 40.093 75.4274 41.13 84.1578 52.0189" stroke="white" stroke-miterlimit="10" stroke-linecap="round" stroke-dasharray="5 5"/>
<path d="M100.575 121.111C101.943 121.111 103.051 120.009 103.051 118.649C103.051 117.288 101.943 116.186 100.575 116.186C99.208 116.186 98.0996 117.288 98.0996 118.649C98.0996 120.009 99.208 121.111 100.575 121.111Z" fill="white"/>
<path d="M84.0275 54.6115C85.3948 54.6115 86.5033 53.5088 86.5033 52.1485C86.5033 50.7883 85.3948 49.6855 84.0275 49.6855C82.6602 49.6855 81.5518 50.7883 81.5518 52.1485C81.5518 53.5088 82.6602 54.6115 84.0275 54.6115Z" fill="white"/>
<path d="M100.575 100.24C96.6663 100.24 93.5391 103.351 93.5391 107.24C93.5391 112.944 100.575 118.259 100.575 118.259C100.575 118.259 107.612 112.944 107.612 107.24C107.612 103.351 104.485 100.24 100.575 100.24ZM100.575 110.611C98.7512 110.611 97.1876 109.055 97.1876 107.24C97.1876 105.425 98.7512 103.87 100.575 103.87C102.4 103.87 103.963 105.425 103.963 107.24C103.833 109.185 102.4 110.611 100.575 110.611Z" fill="url(#paint2_linear)"/>
<path d="M100.575 111.518C102.878 111.518 104.745 109.661 104.745 107.37C104.745 105.079 102.878 103.222 100.575 103.222C98.2721 103.222 96.4053 105.079 96.4053 107.37C96.4053 109.661 98.2721 111.518 100.575 111.518Z" fill="black"/>
<path d="M84.0276 34C80.1185 34 76.9912 37.1111 76.9912 41C76.9912 46.7037 84.0276 52.0185 84.0276 52.0185C84.0276 52.0185 91.0639 46.7037 91.0639 41C91.0639 37.1111 87.9367 34 84.0276 34ZM84.0276 44.3704C82.2033 44.3704 80.6397 42.8148 80.6397 41C80.6397 39.1852 82.2033 37.6296 84.0276 37.6296C85.8518 37.6296 87.4155 39.1852 87.4155 41C87.4155 42.8148 85.8518 44.3704 84.0276 44.3704Z" fill="url(#paint3_linear)"/>
<path d="M84.0271 45.1479C86.33 45.1479 88.1968 43.2907 88.1968 40.9997C88.1968 38.7088 86.33 36.8516 84.0271 36.8516C81.7243 36.8516 79.8574 38.7088 79.8574 40.9997C79.8574 43.2907 81.7243 45.1479 84.0271 45.1479Z" fill="black"/>
</g>
<defs>
<filter id="filter0_f" x="34" y="41" width="115" height="120" filterUnits="userSpaceOnUse" color-interpolation-filters="sRGB">
<feFlood flood-opacity="0" result="BackgroundImageFix"/>
<feBlend mode="normal" in="SourceGraphic" in2="BackgroundImageFix" result="shape"/>
<feGaussianBlur stdDeviation="2" result="effect1_foregroundBlur"/>
</filter>
<linearGradient id="paint0_linear" x1="37.891" y1="100.99" x2="145.021" y2="100.99" gradientUnits="userSpaceOnUse">
<stop stop-color="#5918B8"/>
<stop offset="0.9995" stop-color="#B228E9"/>
</linearGradient>
<linearGradient id="paint1_linear" x1="35.5733" y1="94.8257" x2="146.87" y2="94.8257" gradientUnits="userSpaceOnUse">
<stop stop-color="#5918B8"/>
<stop offset="0.9995" stop-color="#B228E9"/>
</linearGradient>
<linearGradient id="paint2_linear" x1="93.434" y1="109.322" x2="107.61" y2="109.322" gradientUnits="userSpaceOnUse">
<stop stop-color="#04A8A0"/>
<stop offset="0.9995" stop-color="#ABFFB0"/>
</linearGradient>
<linearGradient id="paint3_linear" x1="76.904" y1="43.0658" x2="91.0796" y2="43.0658" gradientUnits="userSpaceOnUse">
<stop stop-color="#DF185E"/>
<stop offset="0.9972" stop-color="#DE6C2E"/>
</linearGradient>
<clipPath id="clip0">
<rect width="129" height="119" fill="white" transform="translate(25 34)"/>
</clipPath>
</defs>
</svg>
