<svg width="157" height="157" viewBox="0 0 157 157" fill="none" xmlns="http://www.w3.org/2000/svg">
<circle cx="78.5" cy="78.5" r="78.5" fill="black"/>
<g clip-path="url(#clip0)">
<path d="M75.3086 26.1641C58.7602 27.9956 45.7178 42.0844 45.7178 59.2727H49.5043C49.5043 46.5928 57.498 35.8853 68.577 31.6587C70.9611 28.7 73.6257 27.0094 75.3086 26.1641Z" fill="url(#paint0_linear)"/>
<path d="M76.3603 25.8818C75.6591 25.8818 75.0982 26.0227 74.397 26.0227C72.7141 27.0089 70.0495 28.6996 67.8056 31.5173C63.0374 37.4346 59.9521 47.4377 59.9521 59.1313H63.7387C63.7387 44.479 69.208 31.94 76.0798 29.9676V26.4454L76.3603 25.8818Z" fill="url(#paint1_linear)"/>
<path d="M76.3603 25.8818C75.6591 25.8818 75.0982 26.0227 74.397 26.0227C72.7141 27.0089 70.0495 28.6996 67.8056 31.5173C63.0374 37.4346 59.9521 47.4377 59.9521 59.1313H63.7387C63.7387 44.479 69.208 31.94 76.0798 29.9676V26.4454L76.3603 25.8818Z" fill="url(#paint2_linear)"/>
<path d="M80.7764 26.1641C97.3248 27.9956 110.367 42.0844 110.367 59.2727H106.581C106.581 46.5928 98.587 35.8853 87.5079 31.6587C85.1238 28.7 82.5995 27.0094 80.7764 26.1641Z" fill="url(#paint3_linear)"/>
<path d="M78.9531 25.8828C79.6543 25.8828 80.2153 26.0237 80.9165 26.0237C82.5994 27.0099 85.264 28.7006 87.5078 31.5183C92.276 37.4356 95.3613 47.4386 95.3613 59.1323H91.5748C91.5748 44.48 86.1054 31.941 79.2336 29.9686V26.4464L78.9531 25.8828Z" fill="url(#paint4_linear)"/>
<path d="M80.0068 59.2719V30.1082V26.0225C79.3056 26.0225 78.7447 26.0225 78.0435 26.0225C77.4825 26.0225 76.9215 26.0225 76.2203 26.0225L76.0801 26.586V30.1082V59.2719H80.0068Z" fill="url(#paint5_linear)"/>
<path d="M76.5001 25.1777C76.5001 25.1777 75.6586 25.4595 74.3965 26.1639C74.9574 26.1639 75.6586 26.0231 76.3598 26.0231L76.5001 25.1777Z" fill="url(#paint6_linear)"/>
<path d="M78.0432 24.8956C80.3667 24.8956 82.2504 23.0033 82.2504 20.669C82.2504 18.3347 80.3667 16.4424 78.0432 16.4424C75.7196 16.4424 73.8359 18.3347 73.8359 20.669C73.8359 23.0033 75.7196 24.8956 78.0432 24.8956Z" fill="url(#paint7_linear)"/>
<path d="M76.0801 65.4717H79.8666V105.625H76.0801V65.4717Z" fill="url(#paint8_linear)"/>
<path d="M44.9453 65.4717H48.7318V105.625H44.9453V65.4717Z" fill="url(#paint9_linear)"/>
<path d="M107.353 65.4717H111.139V105.625H107.353V65.4717Z" fill="url(#paint10_linear)"/>
<path d="M59.9521 65.4717H63.7387V105.625H59.9521V65.4717Z" fill="url(#paint11_linear)"/>
<path d="M113.524 105.624H42.5618C42.0008 105.624 41.5801 106.047 41.5801 106.61V127.884C41.5801 128.589 42.141 129.011 42.702 129.011H66.9636C67.1039 129.011 67.3844 128.87 67.3844 128.73L68.2258 126.475C69.0673 124.362 71.0306 122.953 73.2745 122.953H82.5304C84.7742 122.953 86.8778 124.362 87.579 126.475L88.4205 128.73C88.5607 128.87 88.701 129.011 88.8412 129.011H113.103C113.804 129.011 114.225 128.448 114.225 127.884V106.61C114.645 106.188 114.085 105.624 113.524 105.624Z" fill="url(#paint12_linear)"/>
<path d="M84.9147 27.8552H71.3113C71.1711 27.8552 70.8906 27.7143 70.8906 27.4325V24.4739C70.8906 22.3606 72.5735 20.6699 74.6771 20.6699H81.4087C83.5123 20.6699 85.1952 22.3606 85.1952 24.4739V27.5734C85.1952 27.7143 85.0549 27.8552 84.9147 27.8552Z" fill="url(#paint13_linear)"/>
<path d="M92.7677 88.4351H44.5249C43.403 88.4351 42.5615 87.5898 42.5615 86.4627C42.5615 85.3356 43.403 84.4902 44.5249 84.4902H92.7677C93.8896 84.4902 94.7311 85.3356 94.7311 86.4627C94.5908 87.5898 93.7494 88.4351 92.7677 88.4351Z" fill="url(#paint14_linear)"/>
<path d="M92.3477 65.4717H96.1342V105.625H92.3477V65.4717Z" fill="url(#paint15_linear)"/>
<path d="M112.401 57.2998H43.6834C43.1225 57.2998 42.5615 57.7225 42.5615 58.4269V66.4575C42.5615 67.021 42.9822 67.5846 43.6834 67.5846H112.401C112.962 67.5846 113.523 67.1619 113.523 66.4575V58.4269C113.523 57.7225 112.962 57.2998 112.401 57.2998Z" fill="url(#paint16_linear)"/>
<path d="M113.804 60.9639H42.2811C41.7201 60.9639 41.1592 61.3865 41.1592 62.091C41.1592 62.6545 41.5799 63.2181 42.2811 63.2181H113.804C114.365 63.2181 114.926 62.7954 114.926 62.091C114.926 61.5274 114.365 60.9639 113.804 60.9639Z" fill="url(#paint17_linear)"/>
<path d="M115.206 112.388H40.8788C40.3178 112.388 39.7568 112.81 39.7568 113.515C39.7568 114.078 40.1776 114.642 40.8788 114.642H115.206C115.767 114.642 116.328 114.219 116.328 113.515C116.328 112.951 115.767 112.388 115.206 112.388Z" fill="url(#paint18_linear)"/>
<path d="M114.505 104.639H41.5799C41.019 104.639 40.458 105.061 40.458 105.766C40.458 106.329 40.8787 106.893 41.5799 106.893H114.505C115.066 106.893 115.627 106.47 115.627 105.766C115.627 105.061 115.066 104.639 114.505 104.639Z" fill="url(#paint19_linear)"/>
<path d="M67.9452 126.898H41.5799C41.019 126.898 40.458 127.321 40.458 128.026C40.458 128.589 40.8787 129.153 41.5799 129.153H67.9452C68.5061 129.153 69.0671 128.73 69.0671 128.026C69.0671 127.462 68.6464 126.898 67.9452 126.898Z" fill="url(#paint20_linear)"/>
<path d="M114.505 126.898H88.1395C87.5785 126.898 87.0176 127.321 87.0176 128.026C87.0176 128.589 87.4383 129.153 88.1395 129.153H114.505C115.066 129.153 115.627 128.73 115.627 128.026C115.627 127.462 115.066 126.898 114.505 126.898Z" fill="url(#paint21_linear)"/>
<path d="M111.56 76.3199H92.0669C90.945 76.3199 90.1035 75.4745 90.1035 74.3474C90.1035 73.2203 90.945 72.375 92.0669 72.375H111.56C112.682 72.375 113.524 73.2203 113.524 74.3474C113.524 75.4745 112.542 76.3199 111.56 76.3199Z" fill="url(#paint22_linear)"/>
<path d="M111.56 100.835H92.0669C90.945 100.835 90.1035 99.9892 90.1035 98.8621C90.1035 97.735 90.945 96.8896 92.0669 96.8896H111.56C112.682 96.8896 113.524 97.735 113.524 98.8621C113.524 99.8483 112.542 100.835 111.56 100.835Z" fill="url(#paint23_linear)"/>
</g>
<g clip-path="url(#clip1)">
<path d="M92.4278 14.757C92.4278 14.757 90.2581 14.4087 89.2166 15.6278C89.1298 15.802 89.2166 16.0197 89.3468 16.1938C90.5184 17.9355 92.9052 18.6757 92.9052 18.6757L92.4278 14.757Z" fill="url(#paint24_linear)"/>
<path d="M83.7925 28.3839L78.6285 33.5652C77.4568 34.7408 75.8512 35.394 74.2021 35.394L82.751 26.8164C83.0548 27.3824 83.402 27.9049 83.7925 28.3839Z" fill="url(#paint25_linear)"/>
<path d="M92.8187 29.6908C89.8678 29.6908 86.049 27.0783 85.832 23.7257L90.9961 18.5443L91.2999 18.2395C91.0829 17.6735 90.9527 17.1075 90.9527 16.4544C90.9527 16.2367 90.9527 16.0625 90.9961 15.8448C91.2999 13.5371 93.2526 11.752 95.6394 11.752C99.5016 11.752 102.496 15.4094 102.93 20.286C102.93 20.286 99.762 29.6908 92.8187 29.6908Z" fill="url(#paint26_linear)"/>
<path d="M102.93 20.2861C102.93 20.3732 102.93 20.4603 102.973 20.5474C103.451 26.9043 98.4167 32.4776 92.081 32.434C88.7395 32.3905 85.7453 30.823 83.7925 28.3847C83.4019 27.9058 83.0547 27.3833 82.751 26.8173L85.832 23.7259C86.7434 26.3819 89.2169 28.2977 92.2112 28.2977C94.4677 28.2977 96.4205 25.511 97.6356 23.2034C98.5469 21.4182 100.37 20.2861 102.366 20.2861H102.93Z" fill="url(#paint27_linear)"/>
<path d="M94.5109 14.9307C95.0317 14.9307 95.4222 15.3225 95.4222 15.845C95.4222 16.3675 95.0317 16.7594 94.5109 16.7594C93.9902 16.7594 93.5996 16.3675 93.5996 15.845C93.5996 15.3225 94.0336 14.9307 94.5109 14.9307Z" fill="black"/>
</g>
<defs>
<linearGradient id="paint0_linear" x1="47.0743" y1="42.6652" x2="62.7501" y2="42.6652" gradientUnits="userSpaceOnUse">
<stop offset="0.00416421" stop-color="#E0FA3D"/>
<stop offset="0.9995" stop-color="#FFCB16"/>
</linearGradient>
<linearGradient id="paint1_linear" x1="29.4721" y1="92.9716" x2="89.5968" y2="14.87" gradientUnits="userSpaceOnUse">
<stop offset="0.00416421" stop-color="#E0FA3D"/>
<stop offset="0.9995" stop-color="#FFCB16"/>
</linearGradient>
<linearGradient id="paint2_linear" x1="60.4204" y1="42.5853" x2="75.9993" y2="42.5853" gradientUnits="userSpaceOnUse">
<stop offset="0.00416421" stop-color="#E0FA3D"/>
<stop offset="0.9995" stop-color="#FFCB16"/>
</linearGradient>
<linearGradient id="paint3_linear" x1="108.754" y1="36.4256" x2="99.7983" y2="40.6205" gradientUnits="userSpaceOnUse">
<stop offset="0.00416421" stop-color="#E0FA3D"/>
<stop offset="0.9995" stop-color="#FFCB16"/>
</linearGradient>
<linearGradient id="paint4_linear" x1="86.5148" y1="55.1118" x2="87.9301" y2="24.9977" gradientUnits="userSpaceOnUse">
<stop offset="0.00416421" stop-color="#E0FA3D"/>
<stop offset="0.9995" stop-color="#FFCB16"/>
</linearGradient>
<linearGradient id="paint5_linear" x1="78.0557" y1="56.4118" x2="78.0557" y2="26.8065" gradientUnits="userSpaceOnUse">
<stop offset="0.00416421" stop-color="#E0FA3D"/>
<stop offset="1" stop-color="#FFE647"/>
</linearGradient>
<linearGradient id="paint6_linear" x1="52.824" y1="55.5605" x2="76.3389" y2="25.0148" gradientUnits="userSpaceOnUse">
<stop offset="0.00416421" stop-color="#E0FA3D"/>
<stop offset="0.9995" stop-color="#FFCB16"/>
</linearGradient>
<linearGradient id="paint7_linear" x1="73.8379" y1="20.6127" x2="82.2746" y2="20.6127" gradientUnits="userSpaceOnUse">
<stop offset="0.00416421" stop-color="white"/>
<stop offset="0.9995" stop-color="#C2C2C2"/>
</linearGradient>
<linearGradient id="paint8_linear" x1="78.0561" y1="100.189" x2="78.0561" y2="70.6082" gradientUnits="userSpaceOnUse">
<stop offset="0.00416421" stop-color="#E0FA3D"/>
<stop offset="0.9995" stop-color="#FFCB16"/>
</linearGradient>
<linearGradient id="paint9_linear" x1="46.7992" y1="100.189" x2="46.7992" y2="70.6082" gradientUnits="userSpaceOnUse">
<stop offset="0.00416421" stop-color="#E0FA3D"/>
<stop offset="0.9995" stop-color="#FFCB16"/>
</linearGradient>
<linearGradient id="paint10_linear" x1="109.311" y1="100.189" x2="109.311" y2="70.6082" gradientUnits="userSpaceOnUse">
<stop offset="0.00416421" stop-color="#E0FA3D"/>
<stop offset="0.9995" stop-color="#FFCB16"/>
</linearGradient>
<linearGradient id="paint11_linear" x1="61.8186" y1="100.189" x2="61.8186" y2="70.6082" gradientUnits="userSpaceOnUse">
<stop offset="0.00416421" stop-color="#E0FA3D"/>
<stop offset="0.9995" stop-color="#FFCB16"/>
</linearGradient>
<linearGradient id="paint12_linear" x1="78.0553" y1="127.208" x2="78.0553" y2="107.598" gradientUnits="userSpaceOnUse">
<stop offset="0.00416421" stop-color="#E0FA3D"/>
<stop offset="0.9995" stop-color="#FFCB16"/>
</linearGradient>
<linearGradient id="paint13_linear" x1="78.0555" y1="27.4136" x2="78.0555" y2="21.0562" gradientUnits="userSpaceOnUse">
<stop offset="0.00416421" stop-color="#E0FA3D"/>
<stop offset="0.9995" stop-color="#FFCB16"/>
</linearGradient>
<linearGradient id="paint14_linear" x1="68.6421" y1="88.2029" x2="68.6421" y2="84.8537" gradientUnits="userSpaceOnUse">
<stop offset="0.00416421" stop-color="#E0FA3D"/>
<stop offset="0.9995" stop-color="#FFCB16"/>
</linearGradient>
<linearGradient id="paint15_linear" x1="94.2929" y1="100.189" x2="94.2929" y2="70.6082" gradientUnits="userSpaceOnUse">
<stop offset="0.00416421" stop-color="#E0FA3D"/>
<stop offset="0.9995" stop-color="#FFCB16"/>
</linearGradient>
<linearGradient id="paint16_linear" x1="78.0555" y1="66.9786" x2="78.0555" y2="57.3335" gradientUnits="userSpaceOnUse">
<stop offset="0.00416421" stop-color="#E0FA3D"/>
<stop offset="0.9995" stop-color="#FFCB16"/>
</linearGradient>
<linearGradient id="paint17_linear" x1="78.0555" y1="63.1013" x2="78.0555" y2="60.9963" gradientUnits="userSpaceOnUse">
<stop offset="0.00416421" stop-color="#E0FA3D"/>
<stop offset="0.9995" stop-color="#FFCB16"/>
</linearGradient>
<linearGradient id="paint18_linear" x1="78.0556" y1="114.525" x2="78.0556" y2="112.42" gradientUnits="userSpaceOnUse">
<stop offset="0.00416421" stop-color="#4DA2CC"/>
<stop offset="0.9995" stop-color="#55F488"/>
</linearGradient>
<linearGradient id="paint19_linear" x1="78.0556" y1="106.694" x2="78.0556" y2="104.589" gradientUnits="userSpaceOnUse">
<stop offset="0.00416421" stop-color="#E0FA3D"/>
<stop offset="0.9995" stop-color="#FFCB16"/>
</linearGradient>
<linearGradient id="paint20_linear" x1="54.7844" y1="129.056" x2="54.7844" y2="126.951" gradientUnits="userSpaceOnUse">
<stop offset="0.00416421" stop-color="#E0FA3D"/>
<stop offset="0.9995" stop-color="#FFCB16"/>
</linearGradient>
<linearGradient id="paint21_linear" x1="101.326" y1="129.056" x2="101.326" y2="126.951" gradientUnits="userSpaceOnUse">
<stop offset="0.00416421" stop-color="#E0FA3D"/>
<stop offset="0.9995" stop-color="#FFCB16"/>
</linearGradient>
<linearGradient id="paint22_linear" x1="101.79" y1="76.1067" x2="101.79" y2="72.7575" gradientUnits="userSpaceOnUse">
<stop offset="0.00416421" stop-color="#E0FA3D"/>
<stop offset="0.9995" stop-color="#FFCB16"/>
</linearGradient>
<linearGradient id="paint23_linear" x1="101.79" y1="100.559" x2="101.79" y2="97.2096" gradientUnits="userSpaceOnUse">
<stop offset="0.00416421" stop-color="#E0FA3D"/>
<stop offset="0.9995" stop-color="#FFCB16"/>
</linearGradient>
<linearGradient id="paint24_linear" x1="89.1665" y1="16.7033" x2="92.8667" y2="16.7033" gradientUnits="userSpaceOnUse">
<stop offset="0.00416421" stop-color="#E0FA3D"/>
<stop offset="0.9995" stop-color="#FFCB16"/>
</linearGradient>
<linearGradient id="paint25_linear" x1="74.2021" y1="31.1027" x2="83.7734" y2="31.1027" gradientUnits="userSpaceOnUse">
<stop stop-color="#611AC9"/>
<stop offset="0.9995" stop-color="#B228E9"/>
</linearGradient>
<linearGradient id="paint26_linear" x1="85.8322" y1="20.7192" x2="102.947" y2="20.7192" gradientUnits="userSpaceOnUse">
<stop stop-color="#611AC9"/>
<stop offset="0.9995" stop-color="#B228E9"/>
</linearGradient>
<linearGradient id="paint27_linear" x1="82.7327" y1="26.3506" x2="103.001" y2="26.3506" gradientUnits="userSpaceOnUse">
<stop stop-color="#3A2F99"/>
<stop offset="0.9995" stop-color="#6C2299"/>
</linearGradient>
<clipPath id="clip0">
<rect width="77.5776" height="113.042" fill="white" transform="translate(39.4766 16.1855)"/>
</clipPath>
<clipPath id="clip1">
<rect width="28.8145" height="23.6427" fill="white" transform="translate(74.2021 11.752)"/>
</clipPath>
</defs>
</svg>
