<svg width="14" height="12" viewBox="0 0 14 12" fill="none" xmlns="http://www.w3.org/2000/svg">
<path fill-rule="evenodd" clip-rule="evenodd" d="M10.22 1.33333H12.3334C13.0667 1.33333 13.6667 1.93333 13.6667 2.66667V10.6667C13.6667 11.4 13.0667 12 12.3334 12H1.66671C0.933374 12 0.333374 11.4 0.333374 10.6667V2.66667C0.333374 1.93333 0.933374 1.33333 1.66671 1.33333H3.78004L5.00004 0H9.00004L10.22 1.33333ZM1.66671 10.6667H12.3334V2.66667H9.63337L9.24004 2.23333L8.41337 1.33333H5.58671L4.76004 2.23333L4.36671 2.66667H1.66671V10.6667ZM7.00004 3.33333C5.16004 3.33333 3.66671 4.82667 3.66671 6.66667C3.66671 8.50667 5.16004 10 7.00004 10C8.84004 10 10.3334 8.50667 10.3334 6.66667C10.3334 4.82667 8.84004 3.33333 7.00004 3.33333ZM5.00004 6.66667C5.00004 7.76667 5.90004 8.66667 7.00004 8.66667C8.10004 8.66667 9.00004 7.76667 9.00004 6.66667C9.00004 5.56667 8.10004 4.66667 7.00004 4.66667C5.90004 4.66667 5.00004 5.56667 5.00004 6.66667Z" fill="black" fill-opacity="0.15"/>
</svg>
