<svg width="24" height="24" viewBox="0 0 24 24" fill="none" xmlns="http://www.w3.org/2000/svg">
<path fill-rule="evenodd" clip-rule="evenodd" d="M8.5 6.5H5.5V9.5H3.5V6.5H0.5V4.5H3.5V1.5H5.5V4.5H8.5V6.5ZM18.33 6.5H21.5C22.6 6.5 23.5 7.4 23.5 8.5V20.5C23.5 21.6 22.6 22.5 21.5 22.5H5.5C4.4 22.5 3.5 21.6 3.5 20.5V11.5H5.5V20.5H21.5V8.5H17.45L15.62 6.5H10.5V4.5H16.5L18.33 6.5ZM13.5 19.5C10.74 19.5 8.5 17.26 8.5 14.5C8.5 11.74 10.74 9.5 13.5 9.5C16.26 9.5 18.5 11.74 18.5 14.5C18.5 17.26 16.26 19.5 13.5 19.5ZM13.5 11.5C15.15 11.5 16.5 12.85 16.5 14.5C16.5 16.15 15.15 17.5 13.5 17.5C11.85 17.5 10.5 16.15 10.5 14.5C10.5 12.85 11.85 11.5 13.5 11.5Z" fill="white"/>
</svg>
