<svg width="18" height="18" viewBox="0 0 18 18" fill="none" xmlns="http://www.w3.org/2000/svg">
<path fill-rule="evenodd" clip-rule="evenodd" d="M9 1.5C6.0975 1.5 3.75 3.8475 3.75 6.75C3.75 10.6875 9 16.5 9 16.5C9 16.5 14.25 10.6875 14.25 6.75C14.25 3.8475 11.9025 1.5 9 1.5ZM5.25 6.75C5.25 4.68 6.93 3 9 3C11.07 3 12.75 4.68 12.75 6.75C12.75 8.91 10.59 12.1425 9 14.16C7.44 12.1575 5.25 8.8875 5.25 6.75ZM7.125 6.75C7.125 5.71447 7.96447 4.875 9 4.875C9.66987 4.875 10.2889 5.23237 10.6238 5.8125C10.9587 6.39263 10.9587 7.10737 10.6238 7.6875C10.2889 8.26763 9.66987 8.625 9 8.625C7.96447 8.625 7.125 7.78553 7.125 6.75Z" fill="white" fill-opacity="0.3"/>
</svg>
