<svg width="40" height="40" viewBox="0 0 40 40" fill="none" xmlns="http://www.w3.org/2000/svg">
<circle cx="19" cy="19" r="16" fill="#808080"/>
<path fill-rule="evenodd" clip-rule="evenodd" d="M0 19.9996C0 8.95425 8.95449 0 19.9999 0C31.0458 0 40 8.95425 40 19.9996C40 31.0462 31.0458 40 19.9999 40C8.95449 40 0 31.0462 0 19.9996ZM8.59555 15.4177C14.7498 13.5498 25.3837 13.9018 31.8306 17.7304C32.7173 18.2582 33.8663 17.9652 34.3936 17.0763C34.9205 16.1888 34.6291 15.0408 33.74 14.513C26.3182 10.1074 14.5743 9.69327 7.50938 11.8377C6.52041 12.1381 5.96323 13.1825 6.26271 14.1715C6.56196 15.1597 7.60706 15.7176 8.59555 15.4177ZM29.4745 23.9146C30.2075 24.3652 31.1671 24.135 31.6194 23.4011C32.0701 22.6689 31.8394 21.7088 31.1064 21.2574C24.9333 17.4637 15.9031 16.3961 8.63923 18.6005C7.816 18.8512 7.35101 19.7206 7.59939 20.545C7.84992 21.3682 8.72091 21.833 9.54533 21.5839C15.904 19.6537 24.1 20.6109 29.4745 23.9146ZM29.1722 28.8466C28.8128 29.436 28.0454 29.6206 27.4581 29.2614C22.7617 26.391 16.8503 25.7428 9.88854 27.3329C9.21768 27.4867 8.54897 27.0664 8.39613 26.3958C8.24232 25.7249 8.66122 25.0562 9.33351 24.9031C16.952 23.1616 23.487 23.9111 28.7585 27.1323C29.3463 27.4913 29.5314 28.2591 29.1722 28.8466Z" fill="#121212"/>
</svg>
