<svg width="24" height="24" viewBox="0 0 24 24" fill="none" xmlns="http://www.w3.org/2000/svg">
<path fill-rule="evenodd" clip-rule="evenodd" d="M13.5317 9.90167L22.6117 18.9817C23.0117 19.3817 23.0117 20.0117 22.6117 20.3917L20.3117 22.6917C19.9217 23.0817 19.2917 23.0817 18.9017 22.6917L9.79167 13.5817C7.47167 14.4517 4.76167 13.9617 2.90167 12.1017C0.60167 9.81167 0.39167 6.22167 2.25167 3.68167L6.08167 7.51167L7.50167 6.10167L3.66167 2.25167C6.21167 0.39167 9.79167 0.60167 12.0917 2.90167C13.9817 4.80167 14.4617 7.56167 13.5317 9.90167ZM10.1517 11.1217L19.6117 20.5817L20.4917 19.6917L11.0417 10.2417C11.5017 9.65167 11.8017 8.99167 11.9217 8.28167C12.1717 6.89167 11.7617 5.40167 10.6817 4.32167C9.73167 3.38167 8.48167 2.94167 7.24167 3.01167L10.3317 6.10167L6.09167 10.3417L3.00167 7.25167C2.93167 8.49167 3.37167 9.75167 4.32167 10.6917C5.36167 11.7317 6.79167 12.1417 8.15167 11.9417C8.86167 11.8417 9.54167 11.5717 10.1517 11.1217Z" fill="white" fill-opacity="0.5"/>
</svg>
