<svg width="40" height="40" viewBox="0 0 40 40" fill="none" xmlns="http://www.w3.org/2000/svg">
<circle cx="20" cy="20" r="20" fill="white" fill-opacity="0.5"/>
<path fill-rule="evenodd" clip-rule="evenodd" d="M20 0C8.9543 0 0 8.9543 0 20C0 31.0457 8.9543 40 20 40C31.0457 40 40 31.0457 40 20C40 8.9543 31.0457 0 20 0ZM19.443 16.9481L19.401 16.2561C19.2751 14.4624 20.3803 12.8241 22.129 12.1886C22.7725 11.9626 23.8637 11.9344 24.5771 12.1321C24.8569 12.2168 25.3885 12.4993 25.7663 12.7535L26.4518 13.2196L27.2072 12.9795C27.6269 12.8524 28.1865 12.6405 28.4383 12.4993C28.6761 12.3722 28.8859 12.3016 28.8859 12.3439C28.8859 12.584 28.3683 13.4032 27.9346 13.8551C27.3471 14.4907 27.515 14.5472 28.7041 14.1235C29.4175 13.8834 29.4315 13.8834 29.2916 14.1517C29.2077 14.293 28.774 14.7873 28.3124 15.2392C27.5289 16.016 27.487 16.1007 27.487 16.7504C27.487 17.7532 27.0113 19.8434 26.5357 20.9874C25.6543 23.1342 23.7658 25.3516 21.8772 26.4673C19.2191 28.035 15.6798 28.4304 12.7 27.5124C11.7067 27.2017 10 26.4108 10 26.2696C10 26.2272 10.5176 26.1707 11.1471 26.1566C12.4622 26.1283 13.7772 25.7611 14.8964 25.1115L15.6518 24.6595L14.7844 24.3629C13.5534 23.9392 12.4482 22.9647 12.1684 22.0467C12.0844 21.7501 12.1124 21.736 12.8958 21.736L13.7072 21.7218L13.0218 21.397C12.2104 20.9874 11.4689 20.2954 11.1052 19.5892C10.8394 19.0808 10.5036 17.7956 10.6016 17.6967C10.6295 17.6543 10.9233 17.7391 11.2591 17.852C12.2243 18.2051 12.3503 18.1204 11.7907 17.5272C10.7414 16.4538 10.4197 14.8579 10.9233 13.3467L11.1611 12.6688L12.0844 13.5868C13.973 15.4369 16.1974 16.5386 18.7435 16.8634L19.443 16.9481Z" fill="#121212"/>
</svg>
