<svg width="18" height="18" viewBox="0 0 18 18" fill="none" xmlns="http://www.w3.org/2000/svg">
<g id="icon/action/visibility_off_24px">
<path id="icon/action/visibility_off_24px_2" fill-rule="evenodd" clip-rule="evenodd" d="M3.5175 4.89434L1.5075 2.88434L2.565 1.81934L15.8625 15.1243L14.805 16.1818L12.24 13.6168C11.235 14.0143 10.14 14.2318 9 14.2318C5.25 14.2318 2.0475 11.8993 0.75 8.60684C1.3275 7.12934 2.295 5.85434 3.5175 4.89434ZM8.99991 4.48213C11.8424 4.48213 14.3774 6.07963 15.6149 8.60713C15.1724 9.52213 14.5499 10.3096 13.8074 10.9471L14.8649 12.0046C15.9074 11.0821 16.7324 9.92713 17.2499 8.60713C15.9524 5.31463 12.7499 2.98213 8.99991 2.98213C8.04741 2.98213 7.13241 3.13213 6.26991 3.40963L7.50741 4.64713C7.99491 4.54963 8.48991 4.48213 8.99991 4.48213ZM8.19754 5.33713L9.75004 6.88963C10.1775 7.07713 10.5225 7.42213 10.71 7.84963L12.2625 9.40213C12.3225 9.14713 12.3675 8.87713 12.3675 8.59963C12.375 6.73963 10.86 5.23213 9.00004 5.23213C8.72254 5.23213 8.46004 5.26963 8.19754 5.33713ZM7.1325 8.50936L9.09 10.4669L9.08999 10.4669C9.05999 10.4744 9.03 10.4819 9 10.4819C7.965 10.4819 7.125 9.64186 7.125 8.60686C7.125 8.58811 7.12687 8.57311 7.12875 8.55811L7.12875 8.5581C7.13063 8.5431 7.1325 8.5281 7.1325 8.50936ZM5.89504 7.27195L4.58254 5.95945C3.67504 6.64945 2.91004 7.53445 2.38504 8.60695C3.62254 11.1345 6.15754 12.732 9.00004 12.732C9.71254 12.732 10.4025 12.627 11.0625 12.447L10.3275 11.712C9.92254 11.8845 9.47254 11.982 9.00004 11.982C7.14004 11.982 5.62504 10.467 5.62504 8.60695C5.62504 8.13445 5.72254 7.68445 5.89504 7.27195Z" fill="white" fill-opacity="0.3"/>
</g>
</svg>
