<svg width="186" height="186" viewBox="0 0 186 186" fill="none" xmlns="http://www.w3.org/2000/svg">
<circle cx="93" cy="93" r="93" fill="#121212"/>
<g opacity="0.7">
<path opacity="0.7" d="M111.4 139.5H76.1002C70.4002 139.5 65.7002 134.8 65.7002 129.1V71.1998C65.7002 65.4998 70.4002 60.7998 76.1002 60.7998H111.4C117.1 60.7998 121.8 65.4998 121.8 71.1998V129.1C121.8 134.8 117.1 139.5 111.4 139.5Z" fill="white"/>
</g>
<path d="M115.6 134.5H71.9C66.2 134.5 61.5 129.8 61.5 124.1V54.4C61.5 48.7 66.1 44 71.9 44H115.6C121.3 44 126 48.7 126 54.4V124.1C126 129.8 121.3 134.5 115.6 134.5Z" fill="white"/>
<path d="M77.8998 76.2996C79.1998 74.5996 81.5998 74.2996 83.3998 73.4996C85.9998 72.3996 86.2998 68.9996 88.2998 67.2996C88.8998 66.7996 89.6998 66.3996 90.4998 66.4996C92.4998 66.8996 89.5998 69.5996 89.7998 70.5996C89.8998 71.0996 90.6998 71.3996 92.3998 69.8996C93.5998 68.6996 94.7998 67.4996 95.9998 66.3996C97.3998 64.9996 98.7998 63.5996 100.2 62.1996C101.4 60.9996 102.7 59.6996 103.9 58.4996C104.8 57.5996 106.3 56.6996 105.8 55.1996C105.6 54.4996 105.9 54.2996 106.5 53.8996C107 53.6996 107.4 53.3996 107.8 53.0996C108.9 52.4996 110 51.7996 111.1 51.1996C111.9 50.6996 112.8 50.1996 113.4 51.2996C113.7 51.8996 113.8 52.6996 113.2 53.0996C112.6 53.4996 111.7 53.1996 111.2 53.7996C110.9 54.1996 110.7 54.5996 110.5 54.8996C110.1 55.6996 109.6 56.3996 109 56.9996C108.3 56.5996 107.4 57.0996 106.9 57.5996C106 58.4996 97.5998 67.5996 92.4998 72.9996C91.0998 74.4996 91.3998 75.2996 91.6998 75.5996C92.0998 75.9996 92.6998 75.6996 93.0998 75.4996C93.4998 75.2996 93.5998 74.9996 94.0998 75.0996C94.8998 75.2996 94.8998 76.0996 94.5998 76.7996C94.1998 77.6996 93.4998 78.5996 92.6998 79.1996C91.7998 79.8996 90.6998 80.1996 89.7998 80.7996C87.1998 82.5996 87.6998 85.5996 85.0998 87.0996C82.4998 88.5996 79.6998 86.1996 78.2998 84.2996C75.6998 80.4996 76.9998 77.3996 77.8998 76.2996Z" fill="white"/>
<path d="M115.6 44H71.9C66.2 44 61.5 48.7 61.5 54.4V93H126V54.4C126 48.7 121.3 44 115.6 44Z" fill="url(#paint0_linear)"/>
<path d="M76.1332 76.659C77.4332 74.959 79.8332 74.659 81.6332 73.859C84.2332 72.759 84.5332 69.359 86.5332 67.659C87.1332 67.159 87.9332 66.759 88.7332 66.859C90.7332 67.259 87.8332 69.959 88.0332 70.959C88.1332 71.459 88.9332 71.759 90.6332 70.259C91.8332 69.059 93.0332 67.859 94.2332 66.759C95.6332 65.359 97.0332 63.959 98.4332 62.559C99.6332 61.359 100.933 60.059 102.133 58.859C103.033 57.959 104.533 57.059 104.033 55.559C103.833 54.859 104.133 54.659 104.733 54.259C105.233 54.059 105.633 53.759 106.033 53.459C107.133 52.859 108.233 52.159 109.333 51.559C110.133 51.059 111.033 50.559 111.633 51.659C111.933 52.259 112.033 53.059 111.433 53.459C110.833 53.859 109.933 53.559 109.433 54.159C109.133 54.559 108.933 54.959 108.733 55.259C108.333 56.059 107.833 56.759 107.233 57.359C106.533 56.959 105.633 57.459 105.133 57.959C104.233 58.859 95.8332 67.959 90.7332 73.359C89.3332 74.859 89.6332 75.659 89.9332 75.959C90.3332 76.359 90.9332 76.059 91.3332 75.859C91.7332 75.659 91.8332 75.359 92.3332 75.459C93.1332 75.659 93.1332 76.459 92.8332 77.159C92.4332 78.059 91.7332 78.959 90.9332 79.559C90.0332 80.259 88.9332 80.559 88.0332 81.159C85.4332 82.959 85.9332 85.959 83.3332 87.459C80.7332 88.959 77.9332 86.559 76.5332 84.659C73.9332 80.859 75.2332 77.759 76.1332 76.659Z" fill="white"/>
<path d="M72.0996 104.8H113.8" stroke="#D8D8D8" stroke-width="3" stroke-miterlimit="10"/>
<path d="M72.0996 112.2H113.8" stroke="#D8D8D8" stroke-width="3" stroke-miterlimit="10"/>
<path d="M79.5 119.5H106.5" stroke="#D8D8D8" stroke-width="3" stroke-miterlimit="10"/>
<path d="M146.5 103.5C152.299 103.5 157 98.799 157 93C157 87.201 152.299 82.5 146.5 82.5C140.701 82.5 136 87.201 136 93C136 98.799 140.701 103.5 146.5 103.5Z" stroke="#67DB85" stroke-width="3" stroke-miterlimit="10"/>
<path d="M141.9 92.6996L145.4 96.1996L152 89.5996" stroke="#67DB85" stroke-width="3" stroke-miterlimit="10"/>
<path d="M41 103.5C46.799 103.5 51.5 98.799 51.5 93C51.5 87.201 46.799 82.5 41 82.5C35.201 82.5 30.5 87.201 30.5 93C30.5 98.799 35.201 103.5 41 103.5Z" stroke="#EF5454" stroke-width="3" stroke-miterlimit="10"/>
<path d="M36.7998 88.7998L45.1998 97.1998" stroke="#EF5454" stroke-width="3" stroke-miterlimit="10"/>
<path d="M45.1998 88.7998L36.7998 97.1998" stroke="#EF5454" stroke-width="3" stroke-miterlimit="10"/>
<defs>
<linearGradient id="paint0_linear" x1="61.4888" y1="68.4976" x2="125.986" y2="68.4976" gradientUnits="userSpaceOnUse">
<stop stop-color="#5918B8"/>
<stop offset="0.9995" stop-color="#B228E9"/>
</linearGradient>
</defs>
</svg>
